<svg width="660" height="1064" viewBox="0 0 660 1064" fill="none" xmlns="http://www.w3.org/2000/svg">
<path d="M262 905C262 848.115 215.885 802 159 802C102.115 802 56 848.115 56 905H0C0 817.187 71.1867 746 159 746C246.813 746 318 817.187 318 905H262Z" fill="#97CCE3"/>
<path d="M0 0H318V269C318 356.813 246.813 428 159 428C71.1867 428 0 356.813 0 269V0Z" fill="#0A9396"/>
<path d="M501 269C588.813 269 660 197.813 660 110H342C342 197.813 413.187 269 501 269Z" fill="#BB3E04"/>
<path d="M501 269C588.813 269 660 340.187 660 428H342C342 340.187 413.187 269 501 269Z" fill="#015F73"/>
<path fill-rule="evenodd" clip-rule="evenodd" d="M342 437.067C342.037 519.879 409.18 587 492 587C409.161 587 342.006 654.151 342 736.988C342 736.992 342 736.996 342 737C342 737.004 342 737.007 342 737.011C342 740.029 342.09 743.026 342.266 746C429.868 745.856 500.857 674.868 501 587.265C498.023 587.089 495.022 587 492 587C495.022 587 498.023 586.91 501 586.734C500.857 499.132 429.868 428.143 342.266 428C342.091 430.955 342.002 433.934 342 436.932C342 436.955 342 436.977 342 437C342 437.022 342 437.045 342 437.067Z" fill="#9A2226"/>
<path fill-rule="evenodd" clip-rule="evenodd" d="M660 437.067C659.963 519.879 592.82 587 510 587C592.839 587 659.994 654.151 660 736.988C660 736.992 660 736.996 660 737C660 737.004 660 737.007 660 737.011C660 740.029 659.91 743.026 659.734 746C572.132 745.856 501.143 674.868 501 587.265C503.977 587.089 506.978 587 510 587C506.978 587 503.977 586.91 501 586.734C501.143 499.132 572.132 428.143 659.734 428C659.909 430.955 659.998 433.934 660 436.932C660 436.955 660 436.977 660 437C660 437.022 660 437.045 660 437.067Z" fill="#E9D8A6"/>
<path d="M0 587C0 674.813 71.1867 746 159 746C246.813 746 318 674.813 318 587C318 499.187 246.813 428 159 428H0V587Z" fill="#EE9B00"/>
<path d="M342 746H660L342 1064V746Z" fill="#94D2BD"/>
</svg>
