<svg width="688" height="842" viewBox="0 0 688 842" fill="none" xmlns="http://www.w3.org/2000/svg">
<path d="M426.016 0.742188L639.995 0.742197C639.995 116.711 545.642 210.831 429.385 210.831L426.016 210.831L426.016 0.742188Z" fill="#FFA229"/>
<path d="M639.992 420.919L639.992 631.008L636.622 631.008C520.366 631.008 426.013 536.888 426.013 420.919L639.992 420.919Z" fill="#341830"/>
<path d="M639.994 105.786C639.994 163.801 687.677 210.831 746.497 210.831C805.317 210.831 853 163.801 853 105.786C853 47.7721 805.317 0.742185 746.497 0.742183C687.677 0.74218 639.994 47.7721 639.994 105.786Z" fill="#5C5272"/>
<path d="M213.009 105.786C213.009 163.801 260.692 210.831 319.512 210.831C378.333 210.831 426.016 163.801 426.016 105.786C426.016 47.7721 378.333 0.742185 319.512 0.742183C260.692 0.74218 213.009 47.7721 213.009 105.786Z" fill="#FF763E"/>
<path d="M0.0013687 315.875C0.00136616 373.89 47.6845 420.92 106.505 420.92C165.325 420.92 213.008 373.89 213.008 315.875C213.008 257.861 165.325 210.831 106.505 210.831C47.6845 210.831 0.00137124 257.861 0.0013687 315.875Z" fill="#5C5272"/>
<path d="M639.994 315.875C639.994 373.89 687.677 420.92 746.497 420.92C805.317 420.92 853 373.89 853 315.875C853 257.861 805.317 210.831 746.497 210.831C687.677 210.831 639.994 257.861 639.994 315.875Z" fill="#FFA229"/>
<path d="M426.013 736.052C426.013 794.066 473.914 841.096 533.003 841.096C592.091 841.096 639.992 794.066 639.992 736.052C639.992 678.038 592.091 631.008 533.003 631.008C473.914 631.008 426.013 678.038 426.013 736.052Z" fill="#FF763E"/>
<path d="M639.992 420.92L423.137 420.92C307.145 420.92 213.007 326.8 213.007 210.831L429.861 210.831C545.854 210.831 639.992 304.951 639.992 420.92Z" fill="#0A9396"/>
<path d="M853 631.008L853 525.984L639.994 420.919L639.994 525.984L853 631.008Z" fill="#341830"/>
<path d="M213.008 210.831L213.008 105.807L0.00137329 0.742178L0.0013687 105.807L213.008 210.831Z" fill="#341830"/>
<path d="M853 841.096L853 736.032L639.994 631.008L639.994 736.032L853 841.096Z" fill="#FFA229"/>
<path d="M9.18326e-06 420.919L426.013 420.919C426.013 536.888 332.089 631.008 216.361 631.008L209.652 631.008C93.9242 631.008 4.1141e-06 536.888 9.18326e-06 420.919Z" fill="#FFA229"/>
<path d="M0.00270688 841.096C0.00271195 725.086 93.8859 631.008 209.655 631.008L216.364 631.008C332.132 631.008 426.016 725.086 426.016 841.096L0.00270688 841.096Z" fill="#341830"/>
</svg>
