<svg width="47" height="45" viewBox="0 0 47 45" fill="none" xmlns="http://www.w3.org/2000/svg">
<g id="Group 1216402605">
<g id="Group 1216402580">
<path id="Vector" d="M11.3843 11.3846C13.4801 9.28883 13.4801 5.89086 11.3843 3.79506C9.28854 1.69926 5.89058 1.69927 3.79478 3.79507C1.69898 5.89086 1.69898 9.28882 3.79478 11.3846C5.89058 13.4804 9.28854 13.4804 11.3843 11.3846Z" fill="#341830"/>
<path id="Vector_2" d="M27.2554 11.3846C29.3512 9.28883 29.3512 5.89086 27.2554 3.79506C25.1596 1.69926 21.7617 1.69927 19.6659 3.79507C17.5701 5.89086 17.5701 9.28882 19.6659 11.3846C21.7617 13.4804 25.1596 13.4804 27.2554 11.3846Z" fill="#341830"/>
<path id="Vector_3" d="M43.1226 11.3846C45.2184 9.28883 45.2184 5.89086 43.1226 3.79506C41.0268 1.69926 37.6289 1.69927 35.5331 3.79507C33.4373 5.89086 33.4373 9.28882 35.5331 11.3846C37.6289 13.4804 41.0268 13.4804 43.1226 11.3846Z" fill="#341830"/>
</g>
<g id="Group 1216402581">
<path id="Vector_4" d="M11.3843 26.2704C13.4801 24.1746 13.4801 20.7766 11.3843 18.6808C9.28854 16.585 5.89058 16.585 3.79478 18.6808C1.69898 20.7766 1.69898 24.1746 3.79478 26.2704C5.89058 28.3662 9.28854 28.3662 11.3843 26.2704Z" fill="#EE9B00"/>
<path id="Vector_5" d="M27.2554 26.2704C29.3512 24.1746 29.3512 20.7766 27.2554 18.6808C25.1596 16.585 21.7617 16.585 19.6659 18.6808C17.5701 20.7766 17.5701 24.1746 19.6659 26.2704C21.7617 28.3662 25.1596 28.3662 27.2554 26.2704Z" fill="#EE9B00"/>
<path id="Vector_6" d="M43.1226 26.2704C45.2184 24.1746 45.2184 20.7766 43.1226 18.6808C41.0268 16.585 37.6289 16.585 35.5331 18.6808C33.4373 20.7766 33.4373 24.1746 35.5331 26.2704C37.6289 28.3662 41.0268 28.3662 43.1226 26.2704Z" fill="#EE9B00"/>
</g>
<g id="Group 1216402582">
<path id="Vector_7" d="M11.3843 41.1561C13.4801 39.0603 13.4801 35.6623 11.3843 33.5665C9.28854 31.4707 5.89058 31.4708 3.79478 33.5666C1.69898 35.6623 1.69898 39.0603 3.79478 41.1561C5.89058 43.2519 9.28854 43.2519 11.3843 41.1561Z" fill="#0A9396"/>
<path id="Vector_8" d="M27.2554 41.1561C29.3512 39.0603 29.3512 35.6623 27.2554 33.5665C25.1596 31.4707 21.7617 31.4708 19.6659 33.5666C17.5701 35.6623 17.5701 39.0603 19.6659 41.1561C21.7617 43.2519 25.1596 43.2519 27.2554 41.1561Z" fill="#0A9396"/>
<path id="Vector_9" d="M43.1226 41.1561C45.2184 39.0603 45.2184 35.6623 43.1226 33.5665C41.0268 31.4707 37.6289 31.4708 35.5331 33.5666C33.4373 35.6623 33.4373 39.0603 35.5331 41.1561C37.6289 43.2519 41.0268 43.2519 43.1226 41.1561Z" fill="#0A9396"/>
</g>
</g>
</svg>
