<svg width="43" height="43" viewBox="0 0 43 43" fill="none" xmlns="http://www.w3.org/2000/svg">
<g id="Group 1216402607">
<path id="Intersect" fill-rule="evenodd" clip-rule="evenodd" d="M0.00134463 1.19328C0.00134415 12.1875 8.91393 21.1001 19.9082 21.1001C8.91393 21.1001 0.00134337 30.0127 0.00134289 41.0069C0.00134287 41.4083 0.0132218 41.8069 0.0366479 42.2024C11.6625 42.1828 21.0832 32.7614 21.1016 21.1353C20.7068 21.1119 20.3088 21.1001 19.9082 21.1001C20.3088 21.1001 20.7067 21.0883 21.1016 21.0649C21.082 9.43977 11.6617 0.0195023 0.03652 -9.20782e-07C0.0131798 0.394774 0.00134465 0.792644 0.00134463 1.19328Z" fill="#0A9396"/>
<path id="Intersect_2" fill-rule="evenodd" clip-rule="evenodd" d="M42.2018 1.19328C42.2018 12.1875 33.2892 21.1001 22.295 21.1001C33.2892 21.1001 42.2018 30.0127 42.2018 41.0069C42.2018 41.4083 42.1899 41.8069 42.1665 42.2024C30.5406 42.1828 21.1199 32.7614 21.1016 21.1353C21.4964 21.1119 21.8943 21.1001 22.295 21.1001C21.8943 21.1001 21.4964 21.0883 21.1016 21.0649C21.1211 9.43977 30.5414 0.0195023 42.1666 -9.20782e-07C42.1899 0.394774 42.2018 0.792644 42.2018 1.19328Z" fill="#EE9B00"/>
</g>
</svg>
