<svg xmlns="http://www.w3.org/2000/svg" width="186" height="30" fill="none"><path fill="#0D1B2A" d="M7.033 28.746H3.14V10.65H0V6.766h3.14C3.173 3.787 3.925 0 8.864 0c3.075 0 4.809 2.298 5.365 3.658l.13.291-3.663 1.425-.13-.292s-.557-1.23-1.702-1.23c-1.374 0-1.733 1.036-1.831 2.881h6.672v3.885H7.033z"/><path fill="#0D1B2A" d="M22.21 29.879c-6.15 0-8.865-3.95-8.865-7.867 0-4.823 4.155-9.84 11.089-9.84 1.635 0 2.976.097 4.154.356 0-.583-.065-1.425-.098-1.878H12.233V6.766H32.35v.323s.163 5.406.163 6.928c1.047.68 3.73 2.913 3.73 8.449v6.28H32.35v-6.28c0-.81 0-1.684-.164-2.525-1.08 6.474-4.514 9.905-9.944 9.905zM24.4 16.055c-1.668 0-7.163.42-7.163 5.956 0 2.493 1.864 3.982 4.972 3.982 6.051 0 6.247-6.15 6.378-9.452-1.112-.357-2.486-.518-4.187-.518zM40.985 28.745h-3.892V6.83h3.892zm0-23.89h-3.892V.745h3.892v4.143zM46.48 28.745h-3.892V6.83h3.892v4.273c1.374-2.654 3.37-5.147 7.294-5.147 2.257 0 4.024.712 5.234 2.137l.196.226-2.878 2.914-.23-.324c-.49-.68-1.275-1.068-2.322-1.068-4.514 0-7.294 4.532-7.294 8.708v10.229zM75.54 29.458c-9.224 0-11.187-6.28-11.252-6.572l-.098-.324 3.761-1.035.099.29c.13.39 1.504 3.788 7.49 3.788 7.327 0 7.327-1.845 7.327-3.204 0-1.587-2.584-2.493-7.72-2.622-3.63-.13-10.27-.357-10.27-6.766 0-3.464 2.584-7.154 9.91-7.154 7.328 0 10.075 4.305 10.599 5.18l.163.29-.294.195-3.14 1.619-.164-.26c-.327-.55-2.191-3.204-7.163-3.204-1.8 0-6.019.323-6.019 3.334 0 1.554.458 2.687 6.542 2.913h.13c3.108.13 11.384.421 11.384 6.507 0 7.025-7.883 7.025-11.22 7.025z"/><path fill="#0D1B2A" d="M98.371 29.684c-7.686 0-11.579-4.014-11.579-11.88 0-7.22 4.547-11.88 11.58-11.88 7.032 0 11.611 4.434 11.611 11.88 0 5.114-1.21 11.88-11.612 11.88m0-19.909c-4.939 0-7.686 2.85-7.686 8.028 0 5.18 2.584 8.029 7.686 8.029s7.72-2.46 7.72-8.029c0-3.657-1.341-8.028-7.72-8.028M128.628 7.154V28.42h-3.304v-4.726h-.262c-1.308 2.72-3.173 5.6-7.294 5.6-4.874 0-6.673-3.334-6.673-7.64V7.155h3.271v14.47c0 2.524.851 4.434 3.402 4.434 4.677 0 7.621-4.661 7.621-8.999V7.154h3.271z"/><path fill="#0D1B2A" d="M117.768 29.62c-4.514 0-7-2.817-7-7.964V6.83h3.893v14.794c0 2.751 1.014 4.11 3.074 4.11 4.514 0 7.294-4.499 7.294-8.675V6.83h3.926v21.916h-3.958v-4.208c-1.341 2.622-3.337 5.082-7.229 5.082M134.417 28.745h-3.892V6.83h3.892v4.273c1.374-2.654 3.369-5.147 7.294-5.147 2.257 0 4.024.712 5.234 2.137l.196.226-2.878 2.914-.229-.324c-.491-.68-1.276-1.068-2.323-1.068-4.514 0-7.294 4.532-7.294 8.708v10.229z"/><path fill="#0D1B2A" d="M155.94 29.684c-7.196 0-11.154-4.24-11.154-11.88s4.285-11.88 11.154-11.88c3.009 0 5.528.776 7.458 2.298l.261.194-2.42 3.043-.262-.194c-1.243-.972-2.944-1.457-5.07-1.457-4.808 0-7.229 2.687-7.229 8.028s2.29 8.028 7.229 8.028c2.879 0 4.874-.712 6.052-2.201l.196-.26 3.074 2.428-.196.26c-1.995 2.427-5.07 3.657-9.126 3.657z"/><path fill="#0D1B2A" d="M177.234 29.651c-10.304 0-11.285-9.128-11.318-12.203-2.486-1.554-3.598-3.27-4.056-4.209l-.163-.324.294-.161 3.271-1.36.131.26s.36.711 1.308 1.52c1.603-4.629 5.169-7.154 10.042-7.154 5.692 0 9.224 3.885 9.224 7.51 0 1.069-.458 6.507-9.518 6.507-2.486 0-4.71-.291-6.607-.874.457 4.823 4.055 6.572 7.359 6.604h.033c2.093 0 3.631-.583 4.546-1.716 0-.032.066-.065.066-.097l.163-.194 3.304 1.877-.131.26s-1.995 3.722-8.014 3.722zm-7.065-14.437c1.831.647 3.957.971 6.313.971 2.551 0 5.593-.453 5.593-2.622 0-1.716-2.192-3.626-5.332-3.626-2.518 0-5.56 1.392-6.607 5.31z"/></svg>