<svg width="564" height="566" viewBox="0 0 564 566" fill="none" xmlns="http://www.w3.org/2000/svg">
<path d="M373.574 186.787C373.574 162.736 368.837 138.92 359.633 116.699C350.429 94.4787 336.938 74.2886 319.931 57.2817C302.924 40.2748 282.734 26.7841 260.514 17.5801C238.293 8.37599 214.477 3.63871 190.426 3.6387C166.374 3.6387 142.558 8.37597 120.338 17.58C98.1173 26.7841 77.9272 40.2747 60.9203 57.2816C43.9134 74.2885 30.4228 94.4787 21.2187 116.699C12.0146 138.92 7.27735 162.736 7.27734 186.787L190.426 186.787L373.574 186.787Z" fill="#5C5272"/>
<path d="M563.998 463.329C563.998 519.598 518.383 565.213 462.114 565.213C405.845 565.213 360.23 519.598 360.23 463.329C360.23 407.06 405.845 361.445 462.114 361.445C518.383 361.445 563.998 407.06 563.998 463.329Z" fill="#97CCE3"/>
<path d="M7.27739 279.574C7.27739 330.149 48.2766 371.148 98.8516 371.148C149.427 371.148 190.426 330.149 190.426 279.574C190.426 228.999 149.427 188 98.8516 188C48.2766 188 7.27739 228.999 7.27739 279.574Z" fill="#94D2BD"/>
<path d="M561.574 1.52588e-05C536.886 1.41796e-05 512.439 4.83139 489.63 14.2183C466.821 23.6053 446.096 37.3639 428.638 54.7087C411.181 72.0535 397.333 92.6447 387.885 115.307C378.437 137.969 373.574 162.258 373.574 186.787L561.574 186.787L561.574 1.52588e-05Z" fill="#0A9396"/>
<path d="M373.572 377.213C398.102 377.213 422.391 372.287 445.053 362.718C467.715 353.148 488.306 339.121 505.651 321.438C522.996 303.756 536.754 282.763 546.141 259.66C555.528 236.556 560.359 211.794 560.359 186.787L373.572 186.787L373.572 377.213Z" fill="#341830"/>
<path d="M188 377.213C163.311 377.213 138.865 381.887 116.055 390.97C93.2462 400.052 72.5213 413.364 55.0638 430.145C37.6064 446.927 23.7585 466.85 14.3106 488.776C4.8627 510.702 -2.94802e-05 534.203 0 557.936L188 557.935L188 377.213Z" fill="#FEA22A"/>
<path d="M373.574 377.213C373.574 400.946 368.774 424.446 359.448 446.373C350.122 468.299 336.453 488.222 319.221 505.003C301.989 521.785 281.531 535.097 259.016 544.179C236.501 553.261 212.37 557.936 188 557.936L188 377.213L373.574 377.213Z" fill="#0C8E91"/>
<path d="M188 188C212.37 188 236.501 192.894 259.016 202.403C281.531 211.912 301.989 225.849 319.221 243.419C336.453 260.989 350.122 281.848 359.448 304.804C368.774 327.761 373.574 352.365 373.574 377.213L188 377.213L188 188Z" fill="#FF763E"/>
</svg>
