<svg width="806" height="864" viewBox="0 0 806 864" fill="none" xmlns="http://www.w3.org/2000/svg">
<path d="M371 216L591 216C591 335.232 493.992 432 374.465 432L371 432L371 216Z" fill="#FFA229"/>
<path d="M433 432L433 648L429.535 648C310.008 648 213 551.232 213 432L433 432Z" fill="#341830"/>
<path d="M-5.99999 108C-5.99999 167.647 43.0248 216 103.5 216C163.975 216 213 167.647 213 108C213 48.3532 163.975 -2.14294e-06 103.5 -4.7864e-06C43.0248 -7.42985e-06 -5.99999 48.3532 -5.99999 108Z" fill="#FF763E"/>
<path d="M587 324C587 383.647 636.025 432 696.5 432C756.975 432 806 383.647 806 324C806 264.353 756.975 216 696.5 216C636.025 216 587 264.353 587 324Z" fill="#FF763E"/>
<path d="M213 756C213 815.647 262.249 864 323 864C383.751 864 433 815.647 433 756C433 696.353 383.751 648 323 648C262.249 648 213 696.353 213 756Z" fill="#FF763E"/>
<path d="M433 432L210.043 432C90.7873 432 -6.00001 335.232 -6 216L216.957 216C336.213 216 433 312.768 433 432Z" fill="#0A9396"/>
<path d="M652 648L652 540.021L433 432L433 540.021L652 648Z" fill="#341830"/>
<path d="M652 864L652 755.979L433 648L433 755.979L652 864Z" fill="#FFA229"/>
<path d="M-225 432L213 432C213 551.232 116.433 648 -2.55118 648L-9.44875 648C-128.433 648 -225 551.232 -225 432Z" fill="#FFA229"/>
</svg>
