<svg width="374" height="674" viewBox="0 0 374 674" fill="none" xmlns="http://www.w3.org/2000/svg">
<rect x="104.07" y="316.449" width="342.679" height="342.679" rx="171.339" stroke="#5C5272" stroke-width="50"/>
<path d="M453.951 175.204C453.951 198.212 449.419 220.995 440.614 242.251C431.809 263.508 418.904 282.822 402.635 299.092C386.365 315.361 367.051 328.266 345.794 337.071C324.538 345.876 301.755 350.408 278.747 350.408C255.739 350.408 232.956 345.876 211.699 337.071C190.442 328.266 171.128 315.361 154.859 299.092C138.59 282.822 125.684 263.508 116.88 242.251C108.075 220.995 103.543 198.212 103.543 175.204L278.747 175.204H453.951Z" fill="#FFA229"/>
<circle cx="276.522" cy="488.903" r="73.9749" fill="#341830"/>
<path fill-rule="evenodd" clip-rule="evenodd" d="M133.288 526.795H0V812.839H7.48846V812.84H292.035V725.979L133.288 725.979V526.795Z" fill="#0A9396"/>
</svg>
