<svg width="618" height="855" viewBox="0 0 618 855" fill="none" xmlns="http://www.w3.org/2000/svg">
<path d="M3.36226e-06 428L-5.94826e-06 534.5L214 641L214 534.5L3.36226e-06 428Z" fill="#0A9396"/>
<path d="M3.44968e-06 641L-5.90455e-06 748L214 855L214 748L3.44968e-06 641Z" fill="#5C5272"/>
<path d="M642 214L428 428L428 214L642 214Z" fill="#0A9396"/>
<path d="M428.017 428L642 641.5L428.017 855L214 641.5L428.017 428Z" fill="#FFA300"/>
<path d="M499 855L713.2 855L856 855L856 428L713.2 428L499 428L713.2 641.5L499 855Z" fill="#5C5272"/>
<path d="M428.017 563L507 641.5L428.017 720L349 641.5L428.017 563Z" fill="#341830"/>
</svg>
