<svg viewBox="0 0 377 358" fill="none" xmlns="http://www.w3.org/2000/svg">
<path d="M377 119.35L377 238.701L375.015 238.701C306.532 238.701 250.952 185.232 250.952 119.35L377 119.35Z" fill="#341830"/>
<path d="M0.0016453 59.6753C0.00164383 92.633 28.0902 119.351 62.7391 119.351C97.3881 119.351 125.477 92.633 125.477 59.6753C125.477 26.7175 97.3881 -1.2075e-06 62.7391 -2.69702e-06C28.0902 -4.18654e-06 0.00164676 26.7175 0.0016453 59.6753Z" fill="#5C5272"/>
<path d="M250.952 298.376C250.952 331.334 279.169 358.051 313.976 358.051C348.783 358.051 377 331.334 377 298.376C377 265.418 348.783 238.701 313.976 238.701C279.169 238.701 250.952 265.418 250.952 298.376Z" fill="#FF763E"/>
<path d="M377 119.351L249.258 119.351C180.931 119.351 125.477 65.8815 125.477 -1.08127e-05L253.219 -5.32122e-06C321.546 -2.38391e-06 377 53.4691 377 119.351Z" fill="#0A9396"/>
<path d="M5.40955e-06 119.35L250.95 119.35C250.95 185.232 195.622 238.701 127.451 238.701L123.499 238.701C55.3276 238.701 2.42348e-06 185.232 5.40955e-06 119.35Z" fill="#FFA229"/>
<path d="M0.00329049 358.051C0.00329348 292.146 55.3067 238.701 123.502 238.701L127.454 238.701C195.65 238.701 250.953 292.146 250.953 358.051L0.00329049 358.051Z" fill="#341830"/>
</svg>
