<svg width="768" height="684" viewBox="0 0 768 684" fill="none" xmlns="http://www.w3.org/2000/svg">
<path d="M223.9 535.313C304.504 535.313 369.861 601.719 369.861 683.591H447.801C447.801 557.944 347.537 456.106 223.9 456.106C100.264 456.106 0 557.944 0 683.591H77.939C77.939 601.676 143.296 535.313 223.9 535.313Z" fill="#341830"/>
<path d="M444.742 228.796L667.9 2.05371L891.057 228.796H444.742Z" fill="#FF763E"/>
<path d="M892.547 680.009V683.591H668.647C545.054 683.591 444.746 583.283 444.746 459.689V456.106H668.647C792.24 456.106 892.547 556.415 892.547 680.009Z" fill="#FF763E"/>
<path d="M556.67 457.197C618.487 457.197 668.599 406.263 668.599 343.432C668.599 280.602 618.487 229.668 556.67 229.668C494.854 229.668 444.742 280.602 444.742 343.432C444.742 406.263 494.854 457.197 556.67 457.197Z" fill="#FFA229"/>
<path d="M780.62 457.197C842.436 457.197 892.548 406.263 892.548 343.432C892.548 280.602 842.436 229.668 780.62 229.668C718.803 229.668 668.691 280.602 668.691 343.432C668.691 406.263 718.803 457.197 780.62 457.197Z" fill="#341830"/>
<path d="M447.801 451.737V455.319H9.15527e-05V451.737C9.15527e-05 328.142 100.307 227.834 223.9 227.834C347.493 227.834 447.801 328.142 447.801 451.737Z" fill="#0A9396"/>
<path d="M0 3.58281L0 0.000335693L447.801 0.000335693V3.58281C447.801 127.177 347.493 227.485 223.9 227.485C100.307 227.485 0 127.177 0 3.58281Z" fill="#5C5272"/>
</svg>
