<svg viewBox="0 0 877 648" fill="none" xmlns="http://www.w3.org/2000/svg">
<path d="M658 108C658 167.647 707.025 216 767.5 216C827.975 216 877 167.647 877 108C877 48.3532 827.975 -2.14294e-06 767.5 -4.7864e-06C707.025 -7.42985e-06 658 48.3532 658 108Z" fill="#5C5272"/>
<path d="M1.0538e-05 324C7.93072e-06 383.647 49.0249 432 109.5 432C169.975 432 219 383.647 219 324C219 264.353 169.975 216 109.5 216C49.0249 216 1.31452e-05 264.353 1.0538e-05 324Z" fill="#5C5272"/>
<path d="M658 324C658 383.647 707.025 432 767.5 432C827.975 432 877 383.647 877 324C877 264.353 827.975 216 767.5 216C707.025 216 658 264.353 658 324Z" fill="#FFA229"/>
<path d="M658 432L435.043 432C315.787 432 219 335.232 219 216L441.957 216C561.213 216 658 312.768 658 432Z" fill="#0A9396"/>
<path d="M877 648L877 540.021L658 432L658 540.021L877 648Z" fill="#FF763E"/>
</svg>
