<svg width="650" height="930" viewBox="0 0 650 930" fill="none" xmlns="http://www.w3.org/2000/svg">
<path d="M637.741 230.147H403.566V0.37792L637.741 230.147Z" fill="#FF763E"/>
<path d="M403.565 230.147H169.391V0.37792L403.565 230.147Z" fill="#FF763E"/>
<path d="M637.741 457.533H403.566V227.087L637.741 457.533Z" fill="#FFA229"/>
<path d="M403.565 457.533H169.391V227.087L403.565 457.533Z" fill="#FFA229"/>
<rect x="-57.3164" y="230.825" width="226.708" height="226.708" rx="113.354" fill="#FF763E"/>
<rect x="-36.1942" y="25.2394" width="184.463" height="184.463" rx="92.2317" stroke="#341830" stroke-width="42.2443"/>
<path d="M537.851 573.057C539.45 582.906 532.762 592.187 522.912 593.785C513.063 595.384 503.783 588.696 502.184 578.846C500.585 568.997 507.273 559.717 517.123 558.118C526.972 556.519 536.253 563.207 537.851 573.057Z" fill="#341830"/>
<path d="M601.896 563.177C608.952 570.232 608.952 581.672 601.896 588.728C594.841 595.783 583.401 595.783 576.346 588.728C569.29 581.672 569.29 570.232 576.346 563.177C583.401 556.121 594.841 556.121 601.896 563.177Z" fill="#341830"/>
<path d="M468.412 571.827C470.704 581.538 464.69 591.269 454.978 593.561C445.267 595.853 435.536 589.838 433.244 580.127C430.952 570.416 436.966 560.685 446.678 558.393C456.389 556.101 466.12 562.115 468.412 571.827Z" fill="#341830"/>
<path d="M526.899 628.415C536.117 632.234 540.495 642.802 536.677 652.021C532.858 661.24 522.289 665.617 513.071 661.799C503.852 657.98 499.474 647.412 503.293 638.193C507.111 628.974 517.68 624.597 526.899 628.415Z" fill="#341830"/>
<path d="M606.701 640.954C608.993 650.666 602.979 660.397 593.267 662.689C583.556 664.981 573.825 658.966 571.533 649.255C569.241 639.544 575.255 629.813 584.967 627.521C594.678 625.229 604.409 631.243 606.701 640.954Z" fill="#341830"/>
<path d="M463.611 632.339C470.667 639.395 470.667 650.834 463.611 657.89C456.556 664.945 445.116 664.945 438.061 657.89C431.005 650.834 431.005 639.395 438.061 632.339C445.116 625.283 456.556 625.283 463.611 632.339Z" fill="#341830"/>
<path d="M519.985 488.756C529.963 488.756 538.052 496.845 538.052 506.824C538.052 516.802 529.963 524.891 519.985 524.891C510.007 524.891 501.918 516.802 501.918 506.824C501.918 496.845 510.007 488.756 519.985 488.756Z" fill="#341830"/>
<path d="M589.13 488.756C599.108 488.756 607.197 496.845 607.197 506.824C607.197 516.802 599.108 524.891 589.13 524.891C579.151 524.891 571.062 516.802 571.062 506.824C571.062 496.845 579.151 488.756 589.13 488.756Z" fill="#341830"/>
<path d="M450.841 488.756C460.819 488.756 468.908 496.845 468.908 506.824C468.908 516.802 460.819 524.891 450.841 524.891C440.862 524.891 432.773 516.802 432.773 506.824C432.773 496.845 440.862 488.756 450.841 488.756Z" fill="#341830"/>
<path d="M73.574 808.59C75.1727 818.439 68.4843 827.72 58.6351 829.319C48.7858 830.917 39.5053 824.229 37.9065 814.38C36.3078 804.53 42.9961 795.25 52.8454 793.651C62.6947 792.052 71.9752 798.741 73.574 808.59Z" fill="#341830"/>
<path d="M137.619 798.711C144.675 805.767 144.675 817.206 137.619 824.262C130.563 831.317 119.124 831.317 112.068 824.262C105.013 817.206 105.013 805.767 112.068 798.711C119.124 791.655 130.563 791.655 137.619 798.711Z" fill="#341830"/>
<path d="M4.1346 807.36C6.42669 817.071 0.412172 826.802 -9.2992 829.094C-19.0106 831.386 -28.7413 825.372 -31.0334 815.66C-33.3255 805.949 -27.311 796.218 -17.5996 793.926C-7.88823 791.634 1.84251 797.648 4.1346 807.36Z" fill="#341830"/>
<path d="M62.6214 863.947C71.84 867.766 76.2178 878.334 72.3993 887.553C68.5808 896.772 58.0121 901.149 48.7934 897.331C39.5748 893.512 35.1971 882.944 39.0155 873.725C42.834 864.506 53.4027 860.129 62.6214 863.947Z" fill="#341830"/>
<path d="M142.424 876.488C144.716 886.199 138.701 895.93 128.99 898.222C119.279 900.514 109.548 894.499 107.256 884.788C104.964 875.077 110.978 865.346 120.689 863.054C130.401 860.762 140.132 866.776 142.424 876.488Z" fill="#341830"/>
<path d="M-0.666035 867.872C6.38962 874.928 6.38962 886.367 -0.666027 893.423C-7.72168 900.478 -19.1612 900.478 -26.2168 893.423C-33.2725 886.367 -33.2725 874.928 -26.2168 867.872C-19.1612 860.816 -7.72169 860.816 -0.666035 867.872Z" fill="#341830"/>
<path d="M55.7077 724.29C65.6859 724.29 73.7749 732.379 73.7749 742.357C73.7749 752.335 65.6859 760.424 55.7077 760.424C45.7295 760.424 37.6406 752.335 37.6406 742.357C37.6406 732.379 45.7295 724.29 55.7077 724.29Z" fill="#341830"/>
<path d="M124.852 724.29C134.83 724.29 142.919 732.379 142.919 742.357C142.919 752.335 134.83 760.424 124.852 760.424C114.874 760.424 106.785 752.335 106.785 742.357C106.785 732.379 114.874 724.29 124.852 724.29Z" fill="#341830"/>
<path d="M-13.4368 724.29C-3.4586 724.29 4.63034 732.379 4.63034 742.357C4.63034 752.335 -3.45859 760.424 -13.4368 760.424C-23.415 760.424 -31.5039 752.335 -31.5039 742.357C-31.5039 732.379 -23.415 724.29 -13.4368 724.29Z" fill="#341830"/>
<path d="M-76.9998 697.816C-76.9998 634.089 -51.6843 572.972 -6.62249 527.911C38.4393 482.849 99.5563 457.533 163.283 457.533C227.01 457.533 288.127 482.849 333.189 527.911C378.251 572.972 403.566 634.089 403.566 697.816L163.283 697.816L-76.9998 697.816Z" fill="#0A9396"/>
<path d="M649.957 697.816C649.957 761.543 624.641 822.66 579.58 867.722C534.518 912.784 473.401 938.099 409.674 938.099C345.947 938.099 284.83 912.784 239.768 867.722C194.706 822.66 169.391 761.543 169.391 697.816L409.674 697.816H649.957Z" fill="#5C5272"/>
</svg>
