<svg width="351" height="289" viewBox="0 0 351 289" fill="none" xmlns="http://www.w3.org/2000/svg">
<path d="M9.56538 0C9.5142 0.969552 9.48828 1.9458 9.48828 2.92811C9.48828 33.1125 33.9576 57.5818 64.142 57.5818C94.3264 57.5818 118.796 33.1125 118.796 2.92811C118.796 1.9458 118.77 0.969552 118.719 0H9.56538Z" fill="#FF763E"/>
<path d="M118.797 0V57.5811H231.704L173.192 0H118.797Z" fill="#FCA029"/>
<path d="M231.707 0V57.5811H344.614L286.102 0H231.707Z" fill="#FFA229"/>
<path d="M296.444 113.282C297.215 118.031 293.99 122.505 289.242 123.276C284.493 124.047 280.018 120.822 279.247 116.073C278.476 111.324 281.701 106.85 286.45 106.079C291.199 105.308 295.674 108.533 296.444 113.282Z" fill="#341830"/>
<path d="M327.331 108.52C330.732 111.921 330.732 117.437 327.331 120.839C323.929 124.241 318.413 124.241 315.011 120.839C311.609 117.437 311.609 111.921 315.011 108.52C318.413 105.118 323.929 105.118 327.331 108.52Z" fill="#341830"/>
<path d="M262.969 112.689C264.074 117.372 261.174 122.063 256.492 123.168C251.81 124.274 247.118 121.374 246.013 116.691C244.908 112.009 247.808 107.317 252.49 106.212C257.172 105.107 261.864 108.007 262.969 112.689Z" fill="#341830"/>
<path d="M291.168 139.973C295.613 141.814 297.724 146.91 295.883 151.355C294.042 155.799 288.946 157.91 284.501 156.069C280.056 154.228 277.946 149.132 279.787 144.687C281.628 140.243 286.723 138.132 291.168 139.973Z" fill="#341830"/>
<path d="M329.645 146.019C330.75 150.701 327.85 155.393 323.168 156.498C318.485 157.603 313.794 154.703 312.689 150.021C311.583 145.339 314.483 140.647 319.166 139.542C323.848 138.437 328.54 141.337 329.645 146.019Z" fill="#341830"/>
<path d="M260.655 141.865C264.057 145.267 264.057 150.783 260.655 154.185C257.253 157.586 251.737 157.586 248.335 154.185C244.934 150.783 244.934 145.267 248.335 141.865C251.737 138.463 257.253 138.463 260.655 141.865Z" fill="#341830"/>
<path d="M287.832 72.6364C292.643 72.6364 296.543 76.5365 296.543 81.3475C296.543 86.1585 292.643 90.0586 287.832 90.0586C283.021 90.0586 279.121 86.1585 279.121 81.3475C279.121 76.5365 283.021 72.6364 287.832 72.6364Z" fill="#341830"/>
<path d="M321.176 72.6364C325.987 72.6364 329.887 76.5365 329.887 81.3475C329.887 86.1585 325.987 90.0586 321.176 90.0586C316.365 90.0586 312.465 86.1585 312.465 81.3475C312.465 76.5365 316.365 72.6364 321.176 72.6364Z" fill="#341830"/>
<path d="M254.496 72.6364C259.307 72.6364 263.207 76.5365 263.207 81.3475C263.207 86.1585 259.307 90.0586 254.496 90.0586C249.685 90.0586 245.785 86.1585 245.785 81.3475C245.785 76.5365 249.685 72.6364 254.496 72.6364Z" fill="#341830"/>
<path d="M72.5928 226.844C73.3637 231.593 70.1389 236.067 65.39 236.838C60.6412 237.609 56.1666 234.384 55.3957 229.635C54.6249 224.886 57.8497 220.412 62.5985 219.641C67.3474 218.87 71.822 222.095 72.5928 226.844Z" fill="#341830"/>
<path d="M103.479 222.082C106.881 225.483 106.881 230.999 103.479 234.401C100.077 237.803 94.5616 237.803 91.1597 234.401C87.7578 230.999 87.7578 225.483 91.1597 222.082C94.5616 218.68 100.077 218.68 103.479 222.082Z" fill="#341830"/>
<path d="M39.1175 226.251C40.2226 230.934 37.3227 235.625 32.6403 236.73C27.958 237.836 23.2663 234.936 22.1612 230.253C21.056 225.571 23.9559 220.879 28.6383 219.774C33.3206 218.669 38.0123 221.569 39.1175 226.251Z" fill="#341830"/>
<path d="M67.3167 253.535C71.7615 255.376 73.8722 260.472 72.0311 264.917C70.1901 269.361 65.0943 271.472 60.6496 269.631C56.2048 267.79 54.0941 262.694 55.9351 258.249C57.7762 253.805 62.8719 251.694 67.3167 253.535Z" fill="#341830"/>
<path d="M105.793 259.581C106.898 264.263 103.998 268.955 99.3161 270.06C94.6338 271.165 89.9421 268.265 88.837 263.583C87.7318 258.901 90.6317 254.209 95.3141 253.104C99.9964 251.999 104.688 254.899 105.793 259.581Z" fill="#341830"/>
<path d="M36.8032 255.427C40.2051 258.829 40.2051 264.345 36.8032 267.747C33.4013 271.148 27.8858 271.148 24.4839 267.747C21.082 264.345 21.082 258.829 24.4839 255.427C27.8858 252.025 33.4013 252.025 36.8032 255.427Z" fill="#341830"/>
<path d="M63.9806 186.198C68.7916 186.198 72.6917 190.099 72.6917 194.91C72.6917 199.721 68.7916 203.621 63.9806 203.621C59.1696 203.621 55.2695 199.721 55.2695 194.91C55.2695 190.099 59.1696 186.198 63.9806 186.198Z" fill="#341830"/>
<path d="M97.3244 186.198C102.135 186.198 106.035 190.099 106.035 194.91C106.035 199.721 102.135 203.621 97.3244 203.621C92.5134 203.621 88.6133 199.721 88.6133 194.91C88.6133 190.099 92.5134 186.198 97.3244 186.198Z" fill="#341830"/>
<path d="M30.6447 186.198C35.4557 186.198 39.3558 190.099 39.3558 194.91C39.3558 199.721 35.4557 203.621 30.6447 203.621C25.8337 203.621 21.9336 199.721 21.9336 194.91C21.9336 190.099 25.8337 186.198 30.6447 186.198Z" fill="#341830"/>
<path d="M0.00152075 173.434C0.00152343 142.708 12.2074 113.241 33.934 91.5141C55.6606 69.7875 85.1282 57.5816 115.854 57.5816C146.58 57.5816 176.048 69.7875 197.775 91.5141C219.501 113.241 231.707 142.708 231.707 173.434L115.854 173.434L0.00152075 173.434Z" fill="#0A9396"/>
<path d="M350.502 173.434C350.502 204.16 338.297 233.627 316.57 255.354C294.843 277.081 265.376 289.287 234.65 289.287C203.924 289.287 174.456 277.081 152.729 255.354C131.003 233.627 118.797 204.16 118.797 173.434L234.65 173.434L350.502 173.434Z" fill="#5C5272"/>
</svg>
