<svg width="240" height="560" viewBox="0 0 240 560" fill="none" xmlns="http://www.w3.org/2000/svg">
<path d="M81 121C168.813 121 240 49.8133 240 -38H-78C-78 49.8133 -6.81328 121 81 121Z" fill="#0D1B2A" fill-opacity="0.07"/>
<path d="M81 121C168.813 121 240 192.187 240 280H-78C-78 192.187 -6.81328 121 81 121Z" fill="#0D1B2A" fill-opacity="0.07"/>
<path fill-rule="evenodd" clip-rule="evenodd" d="M-77.9998 289.067C-77.9634 371.879 -10.82 439 72.0002 439C-10.8387 439 -77.9936 506.151 -77.9998 588.988C-77.9998 588.992 -77.9998 588.996 -77.9998 589C-77.9998 589.004 -77.9998 589.007 -77.9998 589.011C-77.9996 592.029 -77.9102 595.026 -77.7343 598C9.86844 597.856 80.8568 526.868 81 439.265C78.0226 439.089 75.0218 439 72.0002 439C75.0218 439 78.0226 438.91 81 438.734C80.8568 351.132 9.86846 280.143 -77.7343 280C-77.9091 282.955 -77.9985 285.934 -77.9998 288.932C-77.9998 288.955 -77.9998 288.977 -77.9998 289C-77.9998 289.022 -77.9998 289.045 -77.9998 289.067Z" fill="#0D1B2A" fill-opacity="0.07"/>
<path fill-rule="evenodd" clip-rule="evenodd" d="M240 289.067C239.963 371.879 172.82 439 89.9998 439C172.839 439 239.994 506.151 240 588.988C240 588.992 240 588.996 240 589C240 589.004 240 589.007 240 589.011C240 592.029 239.91 595.026 239.734 598C152.132 597.856 81.1432 526.868 81 439.265C83.9774 439.089 86.9782 439 89.9998 439C86.9782 439 83.9774 438.91 81 438.734C81.1432 351.132 152.132 280.143 239.734 280C239.909 282.955 239.998 285.934 240 288.932C240 288.955 240 288.977 240 289C240 289.022 240 289.045 240 289.067Z" fill="#0D1B2A" fill-opacity="0.07"/>
</svg>
