<svg width="369" height="638" viewBox="0 0 369 638" fill="none" xmlns="http://www.w3.org/2000/svg">
<path d="M175.5 135C282.367 135 369 48.591 369 -58H-18C-18 48.591 68.6329 135 175.5 135Z" fill="#EE9B00"/>
<path d="M175.5 135C282.367 135 369 221.857 369 329H-18C-18 221.857 68.6329 135 175.5 135Z" fill="#0A9396"/>
<path fill-rule="evenodd" clip-rule="evenodd" d="M-17.9997 340.423C-17.7457 441.025 63.8859 522.499 164.547 522.499C63.8839 522.499 -17.7488 603.977 -17.9998 704.581L-17.9998 705.512C-17.991 709.032 -17.8826 712.529 -17.6772 715.999C88.9341 715.826 175.326 629.434 175.5 522.822C171.876 522.608 168.224 522.499 164.547 522.499C168.224 522.499 171.876 522.391 175.5 522.176C175.325 415.565 88.9338 329.174 -17.6772 329C-17.8824 332.469 -17.9908 335.963 -17.9997 339.481L-17.9997 340.423Z" fill="#97CCE3"/>
<path fill-rule="evenodd" clip-rule="evenodd" d="M369 340.423C368.746 441.025 287.114 522.499 186.453 522.499C287.116 522.499 368.749 603.977 369 704.581L369 705.512C368.991 709.032 368.883 712.529 368.677 715.999C262.066 715.826 175.674 629.434 175.5 522.822C179.124 522.608 182.776 522.499 186.453 522.499C182.776 522.499 179.124 522.391 175.5 522.176C175.675 415.565 262.066 329.174 368.677 329C368.882 332.469 368.991 335.963 369 339.481L369 340.423Z" fill="#94D2BD"/>
</svg>
