<svg width="479" height="638" viewBox="0 0 479 638" fill="none" xmlns="http://www.w3.org/2000/svg">
<path d="M197.691 682.863C197.691 639.941 162.895 605.145 119.973 605.145C77.0502 605.145 42.2545 639.941 42.2545 682.863H0C0 616.604 53.7136 562.891 119.973 562.891C186.232 562.891 239.945 616.604 239.945 682.863H197.691Z" fill="#97CCE3"/>
<path d="M0 0H239.945V202.973C239.945 269.232 186.232 322.945 119.973 322.945C53.7136 322.945 0 269.232 0 202.973V0Z" fill="#0A9396"/>
<path opacity="0.17" d="M378.027 119.973C444.287 119.973 498 66.2591 498 0H258.055C258.055 66.2591 311.768 119.973 378.027 119.973Z" fill="#BB3E04"/>
<path d="M378.027 119.973C444.287 119.973 498 173.686 498 239.945H258.055C258.055 173.686 311.768 119.973 378.027 119.973Z" fill="#015F73"/>
<path fill-rule="evenodd" clip-rule="evenodd" d="M258.055 246.97C258.181 309.371 308.806 359.918 371.236 359.918C308.805 359.918 258.179 410.467 258.055 472.87L258.055 473.33C258.059 475.532 258.126 477.72 258.255 479.89C324.355 479.783 377.919 426.219 378.027 360.118C375.781 359.986 373.516 359.918 371.236 359.918C373.516 359.918 375.781 359.851 378.027 359.718C377.919 293.617 324.355 240.053 258.255 239.945C258.127 242.115 258.059 244.301 258.055 246.503L258.055 246.97Z" fill="#9A2226"/>
<path fill-rule="evenodd" clip-rule="evenodd" d="M498 247.033C497.84 309.405 447.228 359.918 384.818 359.918C447.229 359.918 497.841 410.432 498 472.806L498 473.394C497.994 475.575 497.927 477.741 497.8 479.89C431.7 479.783 378.136 426.219 378.027 360.118C380.274 359.986 382.538 359.918 384.818 359.918C382.538 359.918 380.274 359.851 378.027 359.718C378.135 293.617 431.699 240.053 497.8 239.945C497.927 242.094 497.994 244.26 498 246.439L498 247.033Z" fill="#E9D8A6"/>
<path d="M0 442.918C0 509.177 53.7136 562.891 119.973 562.891C186.232 562.891 239.945 509.177 239.945 442.918C239.945 376.659 186.232 322.945 119.973 322.945H0V442.918Z" fill="#EE9B00"/>
<path d="M258.055 479.89H498L258.055 719.836V479.89Z" fill="#94D2BD"/>
</svg>
