<svg width="441" height="193" viewBox="0 0 441 193" fill="none" xmlns="http://www.w3.org/2000/svg">
<path d="M287 192C299.082 192 311.045 189.556 322.207 184.807C333.369 180.058 343.511 173.097 352.054 164.322C360.597 155.546 367.373 145.129 371.997 133.664C376.62 122.198 379 109.91 379 97.5C379 85.0901 376.62 72.8017 371.997 61.3364C367.374 49.8712 360.597 39.4536 352.054 30.6784C343.511 21.9033 333.369 14.9425 322.207 10.1934C311.045 5.44432 299.082 3 287 3L287 97.5L287 192Z" fill="#5C5272"/>
<path d="M287 141.491C287 169.382 264.167 191.991 236 191.991C207.833 191.991 185 169.382 185 141.491C185 113.601 207.833 90.9912 236 90.9912C264.167 90.9912 287 113.601 287 141.491Z" fill="#97CCE3"/>
<path d="M3.72771 49.7006C3.72771 75.6027 24.7255 96.6004 50.6275 96.6004C76.5296 96.6004 97.5273 75.6027 97.5273 49.7006C97.5273 23.7985 76.5296 2.80078 50.6275 2.80078C24.7255 2.80078 3.72771 23.7985 3.72771 49.7006Z" fill="#94D2BD"/>
<path d="M352 -7.78063e-06C352 11.6876 354.302 23.2608 358.775 34.0588C363.247 44.8568 369.803 54.6681 378.067 62.9325C386.332 71.1969 396.143 77.7526 406.941 82.2253C417.739 86.698 429.312 89 441 89L441 0L352 -7.78063e-06Z" fill="#0A9396"/>
<path d="M191 97.9912C203.607 97.9912 216.09 95.534 227.738 90.7598C239.385 85.9856 249.968 78.9879 258.882 70.1663C267.797 61.3448 274.868 50.8721 279.692 39.3461C284.517 27.8202 287 15.4668 287 2.99122L191 2.99131L191 97.9912Z" fill="#341830"/>
<path d="M96.2852 99.7064C83.6409 99.7064 71.1205 102.1 59.4387 106.752C47.7569 111.403 37.1426 118.221 28.2018 126.816C19.2609 135.411 12.1687 145.614 7.32995 156.844C2.49121 168.073 0.000748212 180.109 0.000762939 192.264L96.2852 192.264L96.2852 99.7064Z" fill="#FEA22A"/>
<path d="M191.327 99.7064C191.327 111.861 188.869 123.897 184.093 135.127C179.316 146.356 172.315 156.56 163.49 165.154C154.665 173.749 144.187 180.567 132.656 185.218C121.125 189.87 108.766 192.264 96.2852 192.264L96.2853 99.7064L191.327 99.7064Z" fill="#0C8E91"/>
<path d="M96.2861 2.80048C108.767 2.80048 121.126 5.30701 132.657 10.177C144.188 15.0469 154.666 22.185 163.491 31.1835C172.316 40.182 179.317 50.8648 184.094 62.6219C188.87 74.379 191.328 86.9802 191.328 99.7061L96.2861 99.7059L96.2861 2.80048Z" fill="#FF763E"/>
</svg>
