<svg width="30" height="30" viewBox="0 0 30 30" fill="none" xmlns="http://www.w3.org/2000/svg">
<rect width="30" height="30" rx="8" fill="#1E1E1E"/>
<g clip-path="url(#clip0_438_5468)">
<path fill-rule="evenodd" clip-rule="evenodd" d="M15.0007 6.375C12.8641 6.37611 10.7976 7.13284 9.17067 8.50989C7.54372 9.88694 6.46245 11.7945 6.12018 13.8915C5.77791 15.9885 6.19696 18.1382 7.30242 19.9561C8.40788 21.7741 10.1276 23.1418 12.1542 23.8147C12.6013 23.8977 12.7697 23.6206 12.7697 23.385C12.7697 23.1494 12.7608 22.4663 12.7578 21.7194C10.2541 22.2603 9.72501 20.6629 9.72501 20.6629C9.31666 19.6256 8.7265 19.3529 8.7265 19.3529C7.9098 18.7987 8.7876 18.8091 8.7876 18.8091C9.69222 18.8728 10.1676 19.7323 10.1676 19.7323C10.9694 21.1 12.2734 20.7044 12.7861 20.4732C12.8666 19.8938 13.1006 19.4996 13.3584 19.2759C11.3584 19.0506 9.25705 18.283 9.25705 14.8541C9.24465 13.9648 9.57654 13.1048 10.184 12.452C10.0916 12.2268 9.78313 11.3169 10.2719 10.0811C10.2719 10.0811 11.0275 9.84102 12.7474 10.9983C14.2225 10.5972 15.7789 10.5972 17.2541 10.9983C18.9724 9.84102 19.7265 10.0811 19.7265 10.0811C20.2168 11.314 19.9083 12.2238 19.8159 12.452C20.4253 13.1049 20.7579 13.9664 20.7444 14.857C20.7444 18.2934 18.6386 19.0506 16.6356 19.2714C16.9575 19.55 17.2451 20.0938 17.2451 20.9296C17.2451 22.1269 17.2347 23.0901 17.2347 23.385C17.2347 23.6236 17.3971 23.9022 17.8532 23.8147C19.88 23.1417 21.5999 21.7738 22.7054 19.9555C23.8108 18.1372 24.2296 15.9872 23.887 13.89C23.5443 11.7929 22.4625 9.88527 20.835 8.50845C19.2075 7.13164 17.1405 6.37541 15.0037 6.375H15.0007Z" fill="#EBF1F2"/>
<path d="M9.40671 19.2245C9.38734 19.2689 9.3158 19.2823 9.25768 19.2511C9.19956 19.22 9.15634 19.1622 9.17721 19.1163C9.19807 19.0704 9.26811 19.0585 9.32624 19.0896C9.38436 19.1207 9.42906 19.18 9.40671 19.2245Z" fill="#D9D9D9"/>
<path d="M9.77245 19.6284C9.74158 19.6438 9.70627 19.6481 9.67256 19.6406C9.63885 19.633 9.60883 19.614 9.58765 19.5869C9.52953 19.5246 9.5176 19.4387 9.56231 19.4002C9.60702 19.3616 9.6875 19.3794 9.74562 19.4416C9.80374 19.5039 9.81715 19.5898 9.77245 19.6284Z" fill="#D9D9D9"/>
<path d="M10.1296 20.1428C10.0745 20.1814 9.98058 20.1428 9.92842 20.0658C9.914 20.052 9.90253 20.0354 9.89469 20.0171C9.88686 19.9987 9.88281 19.979 9.88281 19.9591C9.88281 19.9392 9.88686 19.9195 9.89469 19.9011C9.90253 19.8828 9.914 19.8662 9.92842 19.8524C9.98356 19.8153 10.0775 19.8524 10.1296 19.928C10.1818 20.0035 10.1833 20.1043 10.1296 20.1428Z" fill="#D9D9D9"/>
<path d="M10.6107 20.6409C10.5615 20.6958 10.4617 20.6809 10.3797 20.6068C10.2977 20.5328 10.2783 20.432 10.3275 20.3786C10.3767 20.3253 10.4766 20.3401 10.5615 20.4127C10.6465 20.4853 10.6628 20.5876 10.6107 20.6409Z" fill="#D9D9D9"/>
<path d="M11.2837 20.9308C11.2613 21.0004 11.16 21.0316 11.0586 21.0019C10.9573 20.9723 10.8902 20.8893 10.9096 20.8182C10.929 20.7471 11.0318 20.7145 11.1346 20.7471C11.2375 20.7797 11.303 20.8582 11.2837 20.9308Z" fill="#D9D9D9"/>
<path d="M12.0227 20.981C12.0227 21.0536 11.9393 21.1159 11.8319 21.1173C11.7246 21.1188 11.6367 21.0596 11.6367 20.9869C11.6367 20.9143 11.7202 20.8521 11.8275 20.8506C11.9348 20.8491 12.0227 20.9069 12.0227 20.981Z" fill="#D9D9D9"/>
<path d="M12.7048 20.8669C12.7182 20.9396 12.6437 21.0151 12.5364 21.0329C12.4291 21.0507 12.3352 21.0077 12.3218 20.9366C12.3084 20.8655 12.3859 20.7884 12.4902 20.7691C12.5946 20.7499 12.6914 20.7943 12.7048 20.8669Z" fill="#D9D9D9"/>
</g>
<defs>
<clipPath id="clip0_438_5468">
<rect width="18" height="18" fill="white" transform="translate(6 6)"/>
</clipPath>
</defs>
</svg>
