<svg width="660" height="699" viewBox="0 0 660 699" fill="none" xmlns="http://www.w3.org/2000/svg">
<g clip-path="url(#clip0_438_4934)">
<rect width="1440" height="5021" transform="translate(-732 -110)" fill="#F2F0ED"/>
<path d="M262 795C262 738.115 215.885 692 159 692C102.115 692 56 738.115 56 795H0C0 707.187 71.1867 636 159 636C246.813 636 318 707.187 318 795H262Z" fill="#97CCE3"/>
<path d="M0 -110H318V159C318 246.813 246.813 318 159 318C71.1867 318 0 246.813 0 159V-110Z" fill="#0A9396"/>
<path d="M501 159C588.813 159 660 87.8133 660 0H342C342 87.8133 413.187 159 501 159Z" fill="#BB3E04"/>
<path d="M501 159C588.813 159 660 230.187 660 318H342C342 230.187 413.187 159 501 159Z" fill="#015F73"/>
<path fill-rule="evenodd" clip-rule="evenodd" d="M342 327.067C342.037 409.879 409.18 477 492 477C409.161 477 342.006 544.151 342 626.988C342 626.992 342 626.996 342 627C342 627.004 342 627.007 342 627.011C342 630.029 342.09 633.026 342.266 636C429.868 635.856 500.857 564.868 501 477.265C498.023 477.089 495.022 477 492 477C495.022 477 498.023 476.91 501 476.734C500.857 389.132 429.868 318.143 342.266 318C342.091 320.955 342.002 323.934 342 326.932C342 326.955 342 326.977 342 327C342 327.022 342 327.045 342 327.067Z" fill="#9A2226"/>
<path fill-rule="evenodd" clip-rule="evenodd" d="M660 327.067C659.963 409.879 592.82 477 510 477C592.839 477 659.994 544.151 660 626.988C660 626.992 660 626.996 660 627C660 627.004 660 627.007 660 627.011C660 630.029 659.91 633.026 659.734 636C572.132 635.856 501.143 564.868 501 477.265C503.977 477.089 506.978 477 510 477C506.978 477 503.977 476.91 501 476.734C501.143 389.132 572.132 318.143 659.734 318C659.909 320.955 659.998 323.934 660 326.932C660 326.955 660 326.977 660 327C660 327.022 660 327.045 660 327.067Z" fill="#E9D8A6"/>
<path d="M0 477C0 564.813 71.1867 636 159 636C246.813 636 318 564.813 318 477C318 389.187 246.813 318 159 318H0V477Z" fill="#EE9B00"/>
<path d="M342 636H660L342 954V636Z" fill="#94D2BD"/>
</g>
<defs>
<clipPath id="clip0_438_4934">
<rect width="1440" height="5021" fill="white" transform="translate(-732 -110)"/>
</clipPath>
</defs>
</svg>
