<svg width="77" height="77" viewBox="0 0 77 77" fill="none" xmlns="http://www.w3.org/2000/svg">
<g id="Group 1216402624">
<path id="Vector" d="M55.9881 18.987C61.1334 13.9688 63.6379 7.2668 63.5236 0.570312L12.8607 0.859092C12.9641 7.15238 15.3652 13.4457 20.1239 18.3332C29.9516 28.4242 46.008 28.7185 55.9827 18.9925L55.9881 18.987Z" fill="#0A9396"/>
<path id="Vector_2" d="M57.7786 56.3641C62.7969 61.5094 69.4988 64.0139 76.1953 63.8996L75.9065 13.2367C69.6133 13.3401 63.32 15.7412 58.4325 20.4999C48.3414 30.3276 48.0472 46.384 57.7731 56.3587L57.7786 56.3641Z" fill="#FF763E"/>
<path id="Vector_3" d="M18.4167 20.7765C13.3984 15.6313 6.69649 13.1267 0 13.241L0.288782 63.904C6.58207 63.8005 12.8754 61.3994 17.7629 56.6407C27.8539 46.8131 28.1482 30.7566 18.4222 20.782L18.4167 20.7765Z" fill="#FF763E"/>
<path id="Vector_4" d="M20.4025 58.1536C15.2572 63.1719 12.7527 69.8738 12.867 76.5703L63.5299 76.2815C63.4265 69.9882 61.0254 63.695 56.2667 58.8074C46.439 48.7164 30.3826 48.4222 20.4079 58.1481L20.4025 58.1536Z" fill="#0A9396"/>
</g>
</svg>
