<svg width="76" height="78" viewBox="0 0 76 78" fill="none" xmlns="http://www.w3.org/2000/svg">
<path d="M65.1339 65.8947C59.8066 71.2221 53.0191 74.85 45.6298 76.3199C38.2405 77.7897 30.5813 77.0353 23.6208 74.1522C16.6602 71.269 10.711 66.3866 6.52526 60.1222C2.33957 53.8579 0.105469 46.4931 0.105469 38.959C0.105469 31.425 2.33957 24.0601 6.52526 17.7958C10.711 11.5315 16.6602 6.64902 23.6208 3.76587C30.5813 0.882716 38.2405 0.128352 45.6298 1.59817C53.0191 3.06799 59.8066 6.69598 65.1339 12.0233L38.1983 38.959L65.1339 65.8947Z" fill="#0A9396"/>
<path d="M74.9992 61.9347L74.8452 16.201L52.0553 38.9909L74.9992 61.9347Z" fill="#FF763E"/>
</svg>
