<svg width="25" height="24" viewBox="0 0 25 24" fill="none" xmlns="http://www.w3.org/2000/svg">
<path fill-rule="evenodd" clip-rule="evenodd" d="M12.4959 0C9.52833 0.00152411 6.65809 1.04194 4.39839 2.9352C2.13869 4.82847 0.636876 7.45113 0.161491 10.3342C-0.313894 13.2173 0.268142 16.1728 1.80354 18.6723C3.33893 21.1718 5.72755 23.0522 8.5423 23.9774C9.16328 24.0915 9.39718 23.7105 9.39718 23.3866C9.39718 23.0626 9.38476 22.1234 9.38062 21.0966C5.90314 21.8402 5.16832 19.644 5.16832 19.644C4.60116 18.2179 3.78146 17.843 3.78146 17.843C2.64714 17.081 3.86634 17.0953 3.86634 17.0953C5.12278 17.1829 5.78309 18.3645 5.78309 18.3645C6.89671 20.245 8.70789 19.701 9.41994 19.3832C9.53172 18.5866 9.8567 18.0447 10.2148 17.737C7.43696 17.4274 4.51836 16.372 4.51836 11.6576C4.50114 10.435 4.9621 9.2526 5.80586 8.35512C5.67752 8.04544 5.24904 6.79452 5.92798 5.09538C5.92798 5.09538 6.97744 4.76533 9.36614 6.35649C11.415 5.80501 13.5767 5.80501 15.6256 6.35649C18.0122 4.76533 19.0596 5.09538 19.0596 5.09538C19.7406 6.79044 19.3121 8.04137 19.1838 8.35512C20.0302 9.25275 20.4922 10.4372 20.4734 11.6617C20.4734 16.3863 17.5486 17.4274 14.7666 17.7309C15.2137 18.114 15.6132 18.8617 15.6132 20.0107C15.6132 21.6569 15.5987 22.9811 15.5987 23.3866C15.5987 23.7146 15.8243 24.0976 16.4577 23.9774C19.2728 23.0521 21.6616 21.1714 23.197 18.6715C24.7324 16.1716 25.3141 13.2156 24.8382 10.3322C24.3622 7.44886 22.8597 4.82617 20.5992 2.93323C18.3388 1.04029 15.4679 0.000558055 12.5 0H12.4959Z" fill="white"/>
</svg>
