<?xml version="1.0" encoding="UTF-8" standalone="no"?>
<!DOCTYPE svg PUBLIC "-//W3C//DTD SVG 1.1//EN" "http://www.w3.org/Graphics/SVG/1.1/DTD/svg11.dtd">
<svg width="100%" height="100%" viewBox="0 0 1077 341" version="1.1" xmlns="http://www.w3.org/2000/svg" xmlns:xlink="http://www.w3.org/1999/xlink" xml:space="preserve" xmlns:serif="http://www.serif.com/" style="fill-rule:evenodd;clip-rule:evenodd;stroke-linejoin:round;stroke-miterlimit:2;">
    <g transform="matrix(1,0,0,1,-1251,-568)">
        <g transform="matrix(2.62651,0,0,2.93451,7642,-593.75)">
            <rect id="AYON_blackG_dot" x="-2433" y="396.201" width="409.76" height="115.799" style="fill:none;"/>
            <g id="AYON_blackG_dot1" serif:id="AYON_blackG_dot">
                <g transform="matrix(-0.804673,-0.415828,-0.464592,0.720215,-2318.13,421.205)">
                    <rect x="-38.052" y="10.196" width="44" height="12.001"/>
                </g>
                <g transform="matrix(-0.464558,-0.720232,-0.804692,0.415798,-2234.74,444.372)">
                    <rect x="10.052" y="-5.803" width="12.002" height="44"/>
                </g>
                <g transform="matrix(-0.929163,0,0,0.831638,-1948.72,266.452)">
                    <rect x="354.825" y="239.738" width="12" height="44"/>
                </g>
                <g transform="matrix(0,-0.831638,-0.929163,0,-2283.98,406.116)">
                    <path d="M-12,-12C-18.627,-12 -24,-6.627 -24,0C-24,6.627 -18.627,12 -12,12C-5.373,12 0,6.627 0,0C0,-6.627 -5.373,-12 -12,-12" style="fill:rgb(0,215,160);fill-rule:nonzero;"/>
                </g>
                <g transform="matrix(0.929163,0,0,0.831638,-2182.7,492.439)">
                    <path d="M0,-64C-17.645,-64 -32,-49.645 -32,-32C-32,-14.355 -17.645,0 0,0C17.645,0 32,-14.355 32,-32C32,-49.645 17.645,-64 0,-64M0,12C-24.262,12 -44,-7.738 -44,-32C-44,-56.262 -24.262,-76 0,-76C24.262,-76 44,-56.262 44,-32C44,-7.738 24.262,12 0,12" style="fill-rule:nonzero;"/>
                </g>
                <g transform="matrix(0.929163,0,0,0.831638,-2113.95,502.419)">
                    <path d="M0,-48C-3.313,-48 -6,-45.314 -6,-42L-6,-6C-6,-2.686 -3.313,0 0,0C3.313,0 6,-2.686 6,-6L6,-42C6,-45.314 3.313,-48 0,-48" style="fill-rule:nonzero;"/>
                </g>
                <g transform="matrix(0.929163,0,0,0.831638,-2043.33,469.153)">
                    <path d="M0,-48C-3.313,-48 -6,-45.314 -6,-42L-6,-6C-6,-2.686 -3.313,0 0,0C3.313,0 6,-2.686 6,-6L6,-42C6,-45.314 3.313,-48 0,-48" style="fill-rule:nonzero;"/>
                </g>
                <g transform="matrix(0.929163,0,0,0.831638,-2039.39,437.756)">
                    <path d="M0,67.506L-75.99,-8.484C-77.076,-9.572 -78.578,-10.247 -80.237,-10.247C-83.551,-10.247 -86.237,-7.56 -86.237,-4.247C-86.237,-2.587 -85.563,-1.086 -84.475,0.001L-8.484,75.99C-7.398,77.079 -5.896,77.753 -4.237,77.753C-0.924,77.753 1.763,75.067 1.763,71.753C1.763,70.094 1.089,68.592 0,67.506" style="fill-rule:nonzero;"/>
                </g>
                <g transform="matrix(0.929163,0,0,0.831638,-2384.85,494.932)">
                    <path d="M0,-37.301L-25,6C-26.657,8.87 -30.326,9.853 -33.196,8.196C-36.066,6.54 -37.049,2.87 -35.392,0L-10.392,-43.301C-8.736,-46.171 -5.066,-47.154 -2.196,-45.497C0.674,-43.84 1.657,-40.171 0,-37.301" style="fill-rule:nonzero;"/>
                </g>
                <g transform="matrix(0.929163,0,0,0.831638,-2367.31,499.923)">
                    <path d="M0,-82L43.879,-6C45.536,-3.13 44.553,0.54 41.683,2.197C38.813,3.853 35.143,2.87 33.487,0L-10.392,-76C-12.049,-78.87 -11.066,-82.539 -8.196,-84.196C-5.326,-85.853 -1.657,-84.87 0,-82" style="fill-rule:nonzero;"/>
                </g>
            </g>
        </g>
    </g>
</svg>
