<?xml version="1.0" encoding="UTF-8" standalone="no"?>
<svg
   width="435.54727"
   zoomAndPan="magnify"
   viewBox="0 0 326.66045 73.612935"
   height="98.150581"
   preserveAspectRatio="xMidYMid"
   version="1.0"
   id="svg96"
   xmlns="http://www.w3.org/2000/svg"
   xmlns:svg="http://www.w3.org/2000/svg">
  <defs
     id="defs3">
    <clipPath
       id="abc55ae4a8">
      <path
         d="M 0.25,5.222656 H 112.67969 V 78.835938 H 0.25 Z m 0,0"
         clip-rule="nonzero"
         id="path2" />
    </clipPath>
    <clipPath
       id="3575eb23c2">
      <path
         d="m 63.9375,5.222656 c 1.230469,0 2.46875,0 3.695312,0 9.792969,1.230469 15.910157,5.324219 18.695313,12.019532 16.320315,-0.890626 28.187505,11.769531 20.957035,24.199218 2.40625,2.609375 4.41015,5.53125 5.13672,9.453125 0,1.121094 0,2.242188 0,3.363281 -2.16016,9.980469 -11.45313,16.722657 -26.707036,14.90625 -3.921875,5.125 -10.90625,10.257813 -21.773438,9.617188 -5.617187,-0.335938 -9.523437,-2.285156 -12.945312,-4.652344 -3.605469,1.96875 -7.507813,3.511719 -13.148438,3.527344 C 24.804688,77.6875 16.078125,70.105469 15.863281,59.710938 7.476562,57.277344 1.796875,52.738281 0.25,44.96875 c 0,-1.125 0,-2.25 0,-3.367188 C 1.957031,33.902344 7.328125,29.066406 16.273438,27.019531 15.734375,14.03125 33.625,5.917969 48.324219,11.636719 51.820312,8.808594 56.773438,5.722656 63.9375,5.222656 Z m 0,0"
         clip-rule="nonzero"
         id="path3" />
    </clipPath>
  </defs>
  <g
     clip-path="url(#abc55ae4a8)"
     id="g6"
     style="fill:#2e2a68;fill-opacity:1"
     transform="translate(-0.25048828,-5.2226563)">
    <g
       clip-path="url(#3575eb23c2)"
       id="g5"
       style="fill:#2e2a68;fill-opacity:1">
      <path
         id="path5"
         style="display:inline;fill:#2e2a68;fill-opacity:1"
         d="M 0.25048828,5.2221679 V 78.836425 H 112.39453 V 5.2221679 Z M 49.895508,29.094726 h 2.90625 l -4.905762,27.890625 h -2.922363 l 1.516113,-8.625 h -5.266113 v -2.641113 h 5.749511 l 0.922852,-5.358398 h -5.235352 v -2.625 h 5.71875 z m 7.343261,0 h 2.922363 l -1.516113,8.641114 h 5.266113 v 2.625 h -5.749511 l -0.922852,5.358398 h 5.235352 v 2.641113 h -5.704102 l -1.530762,8.625 h -2.906249 z m 17.541504,0 h 3.515625 v 8.109375 l -1.125,10.469239 H 75.88916 L 74.780273,37.204101 Z m 1.749023,22.734375 c 1.093749,0 1.859376,0.229981 2.296875,0.687012 0.4375,0.449219 0.65625,1.024415 0.65625,1.719727 v 0.717773 c 0,0.687499 -0.21875,1.262696 -0.65625,1.719727 -0.437499,0.445311 -1.203126,0.670898 -2.296875,0.670898 -1.093748,0 -1.859375,-0.225587 -2.296875,-0.670898 -0.437499,-0.457031 -0.65625,-1.032228 -0.65625,-1.719727 V 54.23584 c 0,-0.695312 0.218751,-1.270508 0.65625,-1.719727 0.4375,-0.457031 1.203127,-0.687012 2.296875,-0.687012 z" />
    </g>
  </g>
  <g
     fill="#2e2a68"
     fill-opacity="1"
     id="g9"
     transform="translate(-0.25048828,-5.2226563)">
    <g
       transform="translate(121.81982,48.254532)"
       id="g8">
      <g
         id="g7">
        <path
           d="m 28.375,-19.65625 c 0,1.667969 -0.476562,3.246094 -1.421875,4.734375 -0.949219,1.492187 -2.304687,2.695313 -4.0625,3.609375 -1.761719,0.90625 -3.789063,1.359375 -6.078125,1.359375 H 11.953125 V -4.90625 H 17.5 c 0.882812,0 1.550781,0.246094 2,0.734375 0.457031,0.492187 0.6875,1.0625 0.6875,1.71875 0,0.554687 -0.214844,1.101563 -0.640625,1.640625 C 19.128906,-0.269531 18.476562,0 17.59375,0 H 5.640625 C 4.753906,0 4.097656,-0.25 3.671875,-0.75 3.242188,-1.257812 3.03125,-1.828125 3.03125,-2.453125 c 0,-0.613281 0.210938,-1.175781 0.640625,-1.6875 C 4.097656,-4.648438 4.738281,-4.90625 5.59375,-4.90625 H 7.0625 v -19.203125 h -1.375 c -0.886719,0 -1.554688,-0.242187 -2,-0.734375 -0.4375,-0.5 -0.65625,-1.085938 -0.65625,-1.765625 0,-0.59375 0.203125,-1.140625 0.609375,-1.640625 0.414063,-0.507812 1.097656,-0.765625 2.046875,-0.765625 h 12.109375 c 1.863281,0 3.601563,0.375 5.21875,1.125 1.613281,0.75 2.910156,1.828125 3.890625,3.234375 0.976562,1.40625 1.46875,3.074219 1.46875,5 z m -4.890625,-0.140625 c 0,-1.34375 -0.574219,-2.394531 -1.71875,-3.15625 -1.148437,-0.769531 -2.46875,-1.15625 -3.96875,-1.15625 h -5.84375 v 9.25 h 4.71875 c 1.789063,0 3.375,-0.445313 4.75,-1.34375 1.375,-0.894531 2.0625,-2.09375 2.0625,-3.59375 z m 0,0"
           id="path6" />
      </g>
    </g>
  </g>
  <g
     fill="#2e2a68"
     fill-opacity="1"
     id="g12"
     transform="translate(-0.25048828,-5.2226563)">
    <g
       transform="translate(151.22303,48.254532)"
       id="g11">
      <g
         id="g10">
        <path
           d="m 27.34375,-19.109375 c 0,1.179687 -0.273438,1.964844 -0.8125,2.359375 -0.53125,0.386719 -1.074219,0.578125 -1.625,0.578125 -0.429688,0 -0.824219,-0.101563 -1.1875,-0.3125 -0.355469,-0.21875 -0.632812,-0.488281 -0.828125,-0.8125 l -0.04687,-0.04687 c -0.261719,-0.363281 -0.390625,-0.988281 -0.390625,-1.875 v -4.890625 h -5.34375 v 19.20312 h 3.53125 c 0.875,0 1.507813,0.117188 1.90625,0.34375 l 0.04687,0.046875 c 0.195312,0.136719 0.425781,0.402344 0.6875,0.796875 0.257812,0.386719 0.390625,0.808594 0.390625,1.265625 0,0.59375 -0.203125,1.152344 -0.609375,1.671875 C 22.65625,-0.257812 21.878906,0 20.734375,0 H 8.625 C 7.476562,0 6.691406,-0.242188 6.265625,-0.734375 c -0.417969,-0.488281 -0.625,-1.0625 -0.625,-1.71875 0,-0.613281 0.203125,-1.175781 0.609375,-1.6875 0.40625,-0.507813 1.179688,-0.765625 2.328125,-0.765625 h 3.625 v -19.203125 h -5.34375 v 4.890625 c 0,0.886719 -0.117187,1.527344 -0.34375,1.921875 L 6.46875,-17.25 c -0.125,0.199219 -0.386719,0.429688 -0.78125,0.6875 -0.398438,0.261719 -0.824219,0.390625 -1.28125,0.390625 -0.585938,0 -1.140625,-0.203125 -1.671875,-0.609375 -0.523437,-0.414062 -0.78125,-1.210938 -0.78125,-2.390625 v -9.84375 H 27.34375 Z m 0,0"
           id="path9" />
      </g>
    </g>
  </g>
  <g
     fill="#2e2a68"
     fill-opacity="1"
     id="g15"
     transform="translate(-0.25048828,-5.2226563)">
    <g
       transform="translate(180.62623,48.254532)"
       id="g14">
      <g
         id="g13">
        <path
           d="m 27.25,-4.90625 h 0.546875 c 1.007813,0 1.734375,0.246094 2.171875,0.734375 0.445312,0.492187 0.671875,1.0625 0.671875,1.71875 0,0.523437 -0.199219,1.0625 -0.59375,1.625 C 29.648438,-0.273438 28.976562,0 28.03125,0 H 20.1875 C 19.207031,0 18.515625,-0.269531 18.109375,-0.8125 17.703125,-1.351562 17.5,-1.898438 17.5,-2.453125 c 0,-0.519531 0.1875,-1.054687 0.5625,-1.609375 0.375,-0.5625 1.082031,-0.84375 2.125,-0.84375 h 1.765625 L 20.78125,-7.890625 H 8.875 L 7.703125,-4.90625 H 9.5625 c 0.6875,0 1.289062,0.210938 1.8125,0.625 0.519531,0.40625 0.78125,1.015625 0.78125,1.828125 0,0.523437 -0.199219,1.0625 -0.59375,1.625 C 11.175781,-0.273438 10.523438,0 9.609375,0 H 1.5625 c -0.875,0 -1.515625,-0.25 -1.921875,-0.75 -0.414063,-0.507812 -0.625,-1.078125 -0.625,-1.703125 0,-0.8125 0.265625,-1.421875 0.796875,-1.828125 0.519531,-0.414062 1.101562,-0.625 1.75,-0.625 h 0.84375 l 7.6875,-19.203125 h -3.8125 c -0.792969,0 -1.433594,-0.21875 -1.921875,-0.65625 C 3.867188,-25.210938 3.625,-25.8125 3.625,-26.5625 c 0,-0.5625 0.203125,-1.109375 0.609375,-1.640625 0.414063,-0.539063 1.097656,-0.8125 2.046875,-0.8125 H 17.5 Z m -16.421875,-7.890625 h 7.9375 L 14.796875,-22.5 Z m 0,0"
           id="path12" />
      </g>
    </g>
  </g>
  <g
     fill="#2e2a68"
     fill-opacity="1"
     id="g18"
     transform="translate(-0.25048828,-5.2226563)">
    <g
       transform="translate(210.02944,48.254532)"
       id="g17">
      <g
         id="g16">
        <path
           d="m 13.71875,-26.5625 c 0,0.585938 -0.214844,1.140625 -0.640625,1.671875 -0.417969,0.523437 -1.101563,0.78125 -2.046875,0.78125 H 9.703125 v 7.203125 H 20.1875 v -7.203125 h -1.421875 c -0.980469,0 -1.667969,-0.285156 -2.0625,-0.859375 -0.386719,-0.570312 -0.578125,-1.101562 -0.578125,-1.59375 0,-0.5625 0.191406,-1.109375 0.578125,-1.640625 0.394531,-0.539063 1.066406,-0.8125 2.015625,-0.8125 H 25 c 0.882812,0 1.550781,0.246094 2,0.734375 0.457031,0.492188 0.6875,1.0625 0.6875,1.71875 0,0.6875 -0.21875,1.25 -0.65625,1.6875 -0.4375,0.4375 -1.085938,0.695312 -1.9375,0.765625 V -4.90625 h 0.9375 c 0.78125,0 1.414062,0.226562 1.90625,0.671875 0.488281,0.4375 0.734375,1.03125 0.734375,1.78125 0,0.554687 -0.199219,1.101563 -0.59375,1.640625 C 27.691406,-0.269531 27.054688,0 26.171875,0 h -7.40625 c -0.949219,0 -1.625,-0.269531 -2.03125,-0.8125 C 16.328125,-1.351562 16.125,-1.898438 16.125,-2.453125 c 0,-0.8125 0.257812,-1.421875 0.78125,-1.828125 0.519531,-0.414062 1.125,-0.625 1.8125,-0.625 h 1.46875 v -7.109375 H 9.703125 v 7.109375 h 1.328125 c 0.914062,0 1.59375,0.246094 2.03125,0.734375 0.4375,0.492187 0.65625,1.0625 0.65625,1.71875 0,0.523437 -0.203125,1.0625 -0.609375,1.625 C 12.703125,-0.273438 12.039062,0 11.125,0 h -7.25 c -0.855469,0 -1.523438,-0.234375 -2,-0.703125 -0.46875,-0.476563 -0.703125,-1.0625 -0.703125,-1.75 0,-0.71875 0.242187,-1.304687 0.734375,-1.765625 0.488281,-0.457031 1.113281,-0.6875 1.875,-0.6875 H 4.796875 V -24.109375 C 3.066406,-24.304688 2.203125,-25.125 2.203125,-26.5625 c 0,-0.59375 0.203125,-1.148438 0.609375,-1.671875 0.414062,-0.519531 1.097656,-0.78125 2.046875,-0.78125 h 6.125 c 0.84375,0 1.507813,0.226563 2,0.671875 0.488281,0.4375 0.734375,1.03125 0.734375,1.78125 z m 0,0"
           id="path15" />
      </g>
    </g>
  </g>
  <g
     fill="#2e2a68"
     fill-opacity="1"
     id="g21"
     transform="translate(-0.25048828,-5.2226563)">
    <g
       transform="translate(239.43265,48.254532)"
       id="g20">
      <g
         id="g19">
        <path
           d="m 14.859375,-5.734375 c 2.25,0 3.472656,1.09375 3.671875,3.28125 -0.105469,1.054687 -0.445312,1.855469 -1.015625,2.40625 -0.5625,0.550781 -1.449219,0.828125 -2.65625,0.828125 -1.117187,0 -2.011719,-0.292969 -2.6875,-0.875 -0.667969,-0.59375 -1,-1.378906 -1,-2.359375 0,-1.007813 0.332031,-1.804687 1,-2.390625 0.675781,-0.59375 1.570313,-0.890625 2.6875,-0.890625 z m 0,0"
           id="path18" />
      </g>
    </g>
  </g>
  <g
     fill="#2e2a68"
     fill-opacity="1"
     id="g24"
     transform="translate(-0.25048828,-5.2226563)">
    <g
       transform="translate(268.83586,48.254532)"
       id="g23">
      <g
         id="g22">
        <path
           d="m 14.703125,-29.75 c 2.519531,0 4.660156,0.574219 6.421875,1.71875 0.394531,-0.363281 0.722656,-0.609375 0.984375,-0.734375 0.257813,-0.132813 0.566406,-0.203125 0.921875,-0.203125 0.65625,0 1.226562,0.214844 1.71875,0.640625 0.488281,0.429687 0.734375,1.0625 0.734375,1.90625 v 4.703125 c 0,0.59375 -0.03125,1.015625 -0.09375,1.265625 -0.0625,0.242187 -0.179687,0.460937 -0.34375,0.65625 -0.523437,0.6875 -1.171875,1.03125 -1.953125,1.03125 -0.65625,0 -1.214844,-0.203125 -1.671875,-0.609375 -0.460937,-0.414062 -0.703125,-0.953125 -0.734375,-1.609375 -0.199219,-1.269531 -0.882812,-2.226563 -2.046875,-2.875 -1.15625,-0.65625 -2.453125,-0.984375 -3.890625,-0.984375 -1.5625,0 -2.914062,0.375 -4.046875,1.125 -1.125,0.75 -1.6875,1.648438 -1.6875,2.6875 0,1.835938 1.472656,3.042969 4.421875,3.625 l 1.90625,0.390625 c 2.25,0.460937 4.078125,0.917969 5.484375,1.375 1.40625,0.460937 2.710937,1.304687 3.921875,2.53125 1.207031,1.21875 1.8125,2.945313 1.8125,5.171875 0,1.960938 -0.574219,3.59375 -1.71875,4.90625 -1.136719,1.304688 -2.574219,2.257812 -4.3125,2.859375 -1.730469,0.601563 -3.460938,0.90625 -5.1875,0.90625 -2.75,0 -5.320312,-0.6523438 -7.703125,-1.953125 C 7.285156,-0.800781 6.96875,-0.5 6.6875,-0.3125 6.414062,-0.132812 6.066406,-0.046875 5.640625,-0.046875 5.046875,-0.046875 4.476562,-0.25 3.9375,-0.65625 3.40625,-1.070312 3.140625,-1.753906 3.140625,-2.703125 V -7.25 c 0,-0.945312 0.265625,-1.625 0.796875,-2.03125 0.539062,-0.414062 1.109375,-0.625 1.703125,-0.625 0.78125,0 1.347656,0.226562 1.703125,0.671875 0.363281,0.4375 0.578125,0.902344 0.640625,1.390625 0.132813,0.78125 0.601563,1.453125 1.40625,2.015625 0.800781,0.554687 1.722656,0.96875 2.765625,1.25 1.039062,0.273437 1.972656,0.40625 2.796875,0.40625 0.84375,0 1.785156,-0.128906 2.828125,-0.390625 1.050781,-0.257812 1.960938,-0.679688 2.734375,-1.265625 0.769531,-0.59375 1.15625,-1.328125 1.15625,-2.203125 0,-0.914062 -0.382813,-1.644531 -1.140625,-2.1875 -0.75,-0.539062 -1.609375,-0.929688 -2.578125,-1.171875 -0.960937,-0.25 -2.257813,-0.503906 -3.890625,-0.765625 -3.136719,-0.519531 -5.578125,-1.503906 -7.328125,-2.953125 -1.742187,-1.457031 -2.609375,-3.394531 -2.609375,-5.8125 0,-1.601563 0.460938,-3.082031 1.390625,-4.4375 0.925781,-1.363281 2.195313,-2.4375 3.8125,-3.21875 1.625,-0.78125 3.414063,-1.171875 5.375,-1.171875 z m 0,0"
           id="path21" />
      </g>
    </g>
  </g>
  <g
     fill="#2e2a68"
     fill-opacity="1"
     id="g27"
     transform="translate(-0.25048828,-5.2226563)">
    <g
       transform="translate(298.23907,48.254532)"
       id="g26">
      <g
         id="g25">
        <path
           d="m 13.71875,-26.5625 c 0,0.585938 -0.214844,1.140625 -0.640625,1.671875 -0.417969,0.523437 -1.101563,0.78125 -2.046875,0.78125 H 9.703125 v 7.203125 H 20.1875 v -7.203125 h -1.421875 c -0.980469,0 -1.667969,-0.285156 -2.0625,-0.859375 -0.386719,-0.570312 -0.578125,-1.101562 -0.578125,-1.59375 0,-0.5625 0.191406,-1.109375 0.578125,-1.640625 0.394531,-0.539063 1.066406,-0.8125 2.015625,-0.8125 H 25 c 0.882812,0 1.550781,0.246094 2,0.734375 0.457031,0.492188 0.6875,1.0625 0.6875,1.71875 0,0.6875 -0.21875,1.25 -0.65625,1.6875 -0.4375,0.4375 -1.085938,0.695312 -1.9375,0.765625 V -4.90625 h 0.9375 c 0.78125,0 1.414062,0.226562 1.90625,0.671875 0.488281,0.4375 0.734375,1.03125 0.734375,1.78125 0,0.554687 -0.199219,1.101563 -0.59375,1.640625 C 27.691406,-0.269531 27.054688,0 26.171875,0 h -7.40625 c -0.949219,0 -1.625,-0.269531 -2.03125,-0.8125 C 16.328125,-1.351562 16.125,-1.898438 16.125,-2.453125 c 0,-0.8125 0.257812,-1.421875 0.78125,-1.828125 0.519531,-0.414062 1.125,-0.625 1.8125,-0.625 h 1.46875 v -7.109375 H 9.703125 v 7.109375 h 1.328125 c 0.914062,0 1.59375,0.246094 2.03125,0.734375 0.4375,0.492187 0.65625,1.0625 0.65625,1.71875 0,0.523437 -0.203125,1.0625 -0.609375,1.625 C 12.703125,-0.273438 12.039062,0 11.125,0 h -7.25 c -0.855469,0 -1.523438,-0.234375 -2,-0.703125 -0.46875,-0.476563 -0.703125,-1.0625 -0.703125,-1.75 0,-0.71875 0.242187,-1.304687 0.734375,-1.765625 0.488281,-0.457031 1.113281,-0.6875 1.875,-0.6875 H 4.796875 V -24.109375 C 3.066406,-24.304688 2.203125,-25.125 2.203125,-26.5625 c 0,-0.59375 0.203125,-1.148438 0.609375,-1.671875 0.414062,-0.519531 1.097656,-0.78125 2.046875,-0.78125 h 6.125 c 0.84375,0 1.507813,0.226563 2,0.671875 0.488281,0.4375 0.734375,1.03125 0.734375,1.78125 z m 0,0"
           id="path24" />
      </g>
    </g>
  </g>
  <g
     fill="#2e2a68"
     fill-opacity="1"
     id="g30"
     transform="translate(-0.25048828,-5.2226563)">
    <g
       transform="translate(125.17347,64.613216)"
       id="g29">
      <g
         id="g28">
        <path
           d="m 4.734375,-6.90625 c 0.90625,0 1.632813,0.214844 2.1875,0.640625 0,-0.28125 0.113281,-0.421875 0.34375,-0.421875 0.101563,0 0.179687,0.042969 0.234375,0.125 0.050781,0.074219 0.078125,0.167969 0.078125,0.28125 v 1.171875 c 0,0.125 -0.027344,0.226563 -0.078125,0.296875 -0.054688,0.074219 -0.132812,0.109375 -0.234375,0.109375 -0.210937,0 -0.324219,-0.113281 -0.34375,-0.34375 -0.03125,-0.363281 -0.246094,-0.65625 -0.640625,-0.875 -0.398438,-0.226563 -0.902344,-0.34375 -1.515625,-0.34375 -0.617187,0 -1.125,0.117187 -1.53125,0.34375 -0.40625,0.230469 -0.609375,0.511719 -0.609375,0.84375 0,0.273437 0.140625,0.507813 0.421875,0.703125 0.289063,0.1875 0.640625,0.304688 1.046875,0.34375 L 5,-3.9375 c 1.164062,0.15625 1.941406,0.421875 2.328125,0.796875 0.394531,0.375 0.59375,0.804687 0.59375,1.28125 0,0.40625 -0.136719,0.773437 -0.40625,1.09375 -0.261719,0.324219 -0.632813,0.574219 -1.109375,0.75 C 5.9375,0.160156 5.398438,0.25 4.796875,0.25 c -1.011719,0 -1.84375,-0.25390625 -2.5,-0.765625 v 0.09375 C 2.296875,-0.140625 2.179688,0 1.953125,0 1.734375,0 1.625,-0.132812 1.625,-0.40625 v -1.390625 c 0,-0.269531 0.109375,-0.40625 0.328125,-0.40625 0.226563,0 0.34375,0.152344 0.34375,0.453125 0,0.375 0.238281,0.699219 0.71875,0.96875 0.488281,0.261719 1.078125,0.390625 1.765625,0.390625 0.707031,0 1.300781,-0.140625 1.78125,-0.421875 0.476562,-0.28125 0.71875,-0.628906 0.71875,-1.046875 0,-0.34375 -0.199219,-0.65625 -0.59375,-0.9375 C 6.300781,-3.078125 5.664062,-3.253906 4.78125,-3.328125 3.894531,-3.410156 3.289062,-3.53125 2.96875,-3.6875 2.664062,-3.820312 2.421875,-4.015625 2.234375,-4.265625 c -0.1875,-0.257813 -0.28125,-0.539063 -0.28125,-0.84375 0,-0.34375 0.117187,-0.648437 0.359375,-0.921875 0.238281,-0.28125 0.566406,-0.492188 0.984375,-0.640625 0.425781,-0.15625 0.90625,-0.234375 1.4375,-0.234375 z m 0,0"
           id="path27" />
      </g>
    </g>
  </g>
  <g
     fill="#2e2a68"
     fill-opacity="1"
     id="g33"
     transform="translate(-0.25048828,-5.2226563)">
    <g
       transform="translate(134.65553,64.613216)"
       id="g32">
      <g
         id="g31">
        <path
           d="m 4.671875,-6.90625 c 0.6875,0 1.3125,0.15625 1.875,0.46875 0.5625,0.3125 0.988281,0.742188 1.28125,1.28125 0.300781,0.542969 0.453125,1.199219 0.453125,1.96875 H 1.671875 c 0.113281,0.84375 0.460937,1.523438 1.046875,2.03125 0.59375,0.511719 1.328125,0.765625 2.203125,0.765625 0.476563,0 0.972656,-0.078125 1.484375,-0.234375 C 6.925781,-0.789062 7.363281,-1 7.71875,-1.25 7.8125,-1.332031 7.90625,-1.375 8,-1.375 c 0.082031,0 0.148438,0.03125 0.203125,0.09375 0.0625,0.0625 0.09375,0.136719 0.09375,0.21875 0,0.167969 -0.171875,0.355469 -0.515625,0.5625 C 7.445312,-0.289062 7.015625,-0.113281 6.484375,0.03125 5.953125,0.175781 5.429688,0.25 4.921875,0.25 c -0.71875,0 -1.375,-0.1640625 -1.96875,-0.484375 -0.59375,-0.332031 -1.0625,-0.785156 -1.40625,-1.359375 -0.34375,-0.570312 -0.515625,-1.203125 -0.515625,-1.890625 0,-0.625 0.160156,-1.195313 0.484375,-1.71875 0.320313,-0.53125 0.757813,-0.945313 1.3125,-1.25 0.550781,-0.300781 1.164063,-0.453125 1.84375,-0.453125 z m -3,3.0625 H 7.65625 C 7.53125,-4.550781 7.191406,-5.128906 6.640625,-5.578125 6.097656,-6.035156 5.4375,-6.265625 4.65625,-6.265625 c -0.761719,0 -1.414062,0.226563 -1.953125,0.671875 -0.542969,0.4375 -0.886719,1.023438 -1.03125,1.75 z m 0,0"
           id="path30" />
      </g>
    </g>
  </g>
  <g
     fill="#2e2a68"
     fill-opacity="1"
     id="g36"
     transform="translate(-0.25048828,-5.2226563)">
    <g
       transform="translate(144.1376,64.613216)"
       id="g35">
      <g
         id="g34">
        <path
           d="M 5.109375,-0.640625 H 7.6875 c 0.269531,0 0.40625,0.105469 0.40625,0.3125 C 8.09375,-0.109375 7.957031,0 7.6875,0 H 1.875 C 1.613281,0 1.484375,-0.109375 1.484375,-0.328125 c 0,-0.207031 0.128906,-0.3125 0.390625,-0.3125 H 4.453125 V -9.03125 H 2.5625 c -0.273438,0 -0.40625,-0.109375 -0.40625,-0.328125 0,-0.21875 0.132812,-0.328125 0.40625,-0.328125 h 2.546875 z m 0,0"
           id="path33" />
      </g>
    </g>
  </g>
  <g
     fill="#2e2a68"
     fill-opacity="1"
     id="g39"
     transform="translate(-0.25048828,-5.2226563)">
    <g
       transform="translate(153.61966,64.613216)"
       id="g38">
      <g
         id="g37">
        <path
           d="m 6.125,-9.6875 c 0.332031,0 0.703125,0.023438 1.109375,0.0625 0.40625,0.042969 0.75,0.089844 1.03125,0.140625 0.25,0.042969 0.375,0.152344 0.375,0.328125 0,0.085938 -0.03125,0.15625 -0.09375,0.21875 -0.0625,0.0625 -0.152344,0.09375 -0.265625,0.09375 -0.074219,0 -0.203125,-0.015625 -0.390625,-0.046875 C 7.828125,-8.898438 7.613281,-8.925781 7.25,-8.96875 6.894531,-9.007812 6.519531,-9.03125 6.125,-9.03125 c -0.574219,0 -1.015625,0.140625 -1.328125,0.421875 -0.304687,0.273437 -0.453125,0.574219 -0.453125,0.90625 V -6.6875 h 3.078125 c 0.257813,0 0.390625,0.109375 0.390625,0.328125 0,0.21875 -0.132812,0.328125 -0.390625,0.328125 H 4.34375 v 5.390625 h 2.875 c 0.28125,0 0.421875,0.105469 0.421875,0.3125 C 7.640625,-0.109375 7.5,0 7.21875,0 H 2.109375 C 1.828125,0 1.6875,-0.109375 1.6875,-0.328125 c 0,-0.207031 0.140625,-0.3125 0.421875,-0.3125 h 1.59375 V -6.03125 h -1.4375 c -0.28125,0 -0.421875,-0.109375 -0.421875,-0.328125 0,-0.21875 0.140625,-0.328125 0.421875,-0.328125 h 1.4375 v -1.03125 c 0,-0.332031 0.09375,-0.648438 0.28125,-0.953125 C 4.171875,-8.972656 4.445312,-9.21875 4.8125,-9.40625 5.175781,-9.59375 5.613281,-9.6875 6.125,-9.6875 Z m 0,0"
           id="path36" />
      </g>
    </g>
  </g>
  <g
     fill="#2e2a68"
     fill-opacity="1"
     id="g42"
     transform="translate(-0.25048828,-5.2226563)">
    <g
       transform="translate(163.10173,64.613216)"
       id="g41">
      <g
         id="g40">
        <path
           d="M 8.078125,-4 H 1.46875 v -0.9375 h 6.609375 z m 0,0"
           id="path39" />
      </g>
    </g>
  </g>
  <g
     fill="#2e2a68"
     fill-opacity="1"
     id="g45"
     transform="translate(-0.25048828,-5.2226563)">
    <g
       transform="translate(172.58379,64.613216)"
       id="g44">
      <g
         id="g43">
        <path
           d="m 2.640625,-5.703125 c 0.40625,-0.445313 0.796875,-0.757813 1.171875,-0.9375 0.382812,-0.1875 0.816406,-0.28125 1.296875,-0.28125 0.507813,0 0.953125,0.105469 1.328125,0.3125 0.382812,0.199219 0.675781,0.46875 0.875,0.8125 0.207031,0.34375 0.3125,0.703125 0.3125,1.078125 v 4.078125 h 0.75 c 0.28125,0 0.421875,0.105469 0.421875,0.3125 C 8.796875,-0.109375 8.65625,0 8.375,0 H 6.21875 C 5.9375,0 5.796875,-0.109375 5.796875,-0.328125 c 0,-0.207031 0.140625,-0.3125 0.421875,-0.3125 h 0.75 V -4.65625 c 0,-0.425781 -0.164062,-0.800781 -0.484375,-1.125 C 6.160156,-6.101562 5.6875,-6.265625 5.0625,-6.265625 c -0.324219,0 -0.601562,0.042969 -0.828125,0.125 -0.21875,0.085937 -0.40625,0.195313 -0.5625,0.328125 -0.148437,0.125 -0.335937,0.308594 -0.5625,0.546875 -0.09375,0.117187 -0.25,0.28125 -0.46875,0.5 v 4.125 h 0.78125 c 0.257813,0 0.390625,0.105469 0.390625,0.3125 C 3.8125,-0.109375 3.679688,0 3.421875,0 h -2.1875 C 0.972656,0 0.84375,-0.109375 0.84375,-0.328125 c 0,-0.207031 0.128906,-0.3125 0.390625,-0.3125 H 2 V -9.03125 H 1.09375 c -0.261719,0 -0.390625,-0.109375 -0.390625,-0.328125 0,-0.21875 0.128906,-0.328125 0.390625,-0.328125 h 1.546875 z m 0,0"
           id="path42" />
      </g>
    </g>
  </g>
  <g
     fill="#2e2a68"
     fill-opacity="1"
     id="g48"
     transform="translate(-0.25048828,-5.2226563)">
    <g
       transform="translate(182.06586,64.613216)"
       id="g47">
      <g
         id="g46">
        <path
           d="m 4.78125,-6.90625 c 0.644531,0 1.25,0.164062 1.8125,0.484375 0.5625,0.3125 1,0.746094 1.3125,1.296875 0.320312,0.542969 0.484375,1.136719 0.484375,1.78125 0,0.65625 -0.164063,1.261719 -0.484375,1.8125 -0.3125,0.542969 -0.75,0.976562 -1.3125,1.296875 C 6.03125,0.0859375 5.425781,0.25 4.78125,0.25 4.125,0.25 3.519531,0.0859375 2.96875,-0.234375 2.414062,-0.554688 1.972656,-0.988281 1.640625,-1.53125 1.316406,-2.082031 1.15625,-2.6875 1.15625,-3.34375 1.15625,-3.976562 1.316406,-4.570312 1.640625,-5.125 1.972656,-5.675781 2.414062,-6.109375 2.96875,-6.421875 3.519531,-6.742188 4.125,-6.90625 4.78125,-6.90625 Z m -2.984375,3.5625 c 0,0.542969 0.132813,1.039062 0.40625,1.484375 0.269531,0.449219 0.628906,0.808594 1.078125,1.078125 0.457031,0.261719 0.957031,0.390625 1.5,0.390625 0.53125,0 1.019531,-0.128906 1.46875,-0.390625 C 6.707031,-1.050781 7.070312,-1.410156 7.34375,-1.859375 7.613281,-2.304688 7.75,-2.800781 7.75,-3.34375 7.75,-3.851562 7.617188,-4.332031 7.359375,-4.78125 7.097656,-5.226562 6.738281,-5.585938 6.28125,-5.859375 5.832031,-6.128906 5.335938,-6.265625 4.796875,-6.265625 c -0.554687,0 -1.058594,0.136719 -1.515625,0.40625 -0.460938,0.261719 -0.824219,0.617187 -1.09375,1.0625 -0.261719,0.449219 -0.390625,0.933594 -0.390625,1.453125 z m 0,0"
           id="path45" />
      </g>
    </g>
  </g>
  <g
     fill="#2e2a68"
     fill-opacity="1"
     id="g51"
     transform="translate(-0.25048828,-5.2226563)">
    <g
       transform="translate(191.54792,64.613216)"
       id="g50">
      <g
         id="g49">
        <path
           d="m 4.734375,-6.90625 c 0.90625,0 1.632813,0.214844 2.1875,0.640625 0,-0.28125 0.113281,-0.421875 0.34375,-0.421875 0.101563,0 0.179687,0.042969 0.234375,0.125 0.050781,0.074219 0.078125,0.167969 0.078125,0.28125 v 1.171875 c 0,0.125 -0.027344,0.226563 -0.078125,0.296875 -0.054688,0.074219 -0.132812,0.109375 -0.234375,0.109375 -0.210937,0 -0.324219,-0.113281 -0.34375,-0.34375 -0.03125,-0.363281 -0.246094,-0.65625 -0.640625,-0.875 -0.398438,-0.226563 -0.902344,-0.34375 -1.515625,-0.34375 -0.617187,0 -1.125,0.117187 -1.53125,0.34375 -0.40625,0.230469 -0.609375,0.511719 -0.609375,0.84375 0,0.273437 0.140625,0.507813 0.421875,0.703125 0.289063,0.1875 0.640625,0.304688 1.046875,0.34375 L 5,-3.9375 c 1.164062,0.15625 1.941406,0.421875 2.328125,0.796875 0.394531,0.375 0.59375,0.804687 0.59375,1.28125 0,0.40625 -0.136719,0.773437 -0.40625,1.09375 -0.261719,0.324219 -0.632813,0.574219 -1.109375,0.75 C 5.9375,0.160156 5.398438,0.25 4.796875,0.25 c -1.011719,0 -1.84375,-0.25390625 -2.5,-0.765625 v 0.09375 C 2.296875,-0.140625 2.179688,0 1.953125,0 1.734375,0 1.625,-0.132812 1.625,-0.40625 v -1.390625 c 0,-0.269531 0.109375,-0.40625 0.328125,-0.40625 0.226563,0 0.34375,0.152344 0.34375,0.453125 0,0.375 0.238281,0.699219 0.71875,0.96875 0.488281,0.261719 1.078125,0.390625 1.765625,0.390625 0.707031,0 1.300781,-0.140625 1.78125,-0.421875 0.476562,-0.28125 0.71875,-0.628906 0.71875,-1.046875 0,-0.34375 -0.199219,-0.65625 -0.59375,-0.9375 C 6.300781,-3.078125 5.664062,-3.253906 4.78125,-3.328125 3.894531,-3.410156 3.289062,-3.53125 2.96875,-3.6875 2.664062,-3.820312 2.421875,-4.015625 2.234375,-4.265625 c -0.1875,-0.257813 -0.28125,-0.539063 -0.28125,-0.84375 0,-0.34375 0.117187,-0.648437 0.359375,-0.921875 0.238281,-0.28125 0.566406,-0.492188 0.984375,-0.640625 0.425781,-0.15625 0.90625,-0.234375 1.4375,-0.234375 z m 0,0"
           id="path48" />
      </g>
    </g>
  </g>
  <g
     fill="#2e2a68"
     fill-opacity="1"
     id="g54"
     transform="translate(-0.25048828,-5.2226563)">
    <g
       transform="translate(201.02999,64.613216)"
       id="g53">
      <g
         id="g52">
        <path
           d="m 3.59375,-9.03125 c 0.207031,0 0.3125,0.132812 0.3125,0.390625 V -6.6875 h 3.5625 c 0.269531,0 0.40625,0.109375 0.40625,0.328125 0,0.21875 -0.136719,0.328125 -0.40625,0.328125 h -3.5625 v 4.359375 c 0,0.324219 0.140625,0.621094 0.421875,0.890625 0.289063,0.261719 0.734375,0.390625 1.328125,0.390625 0.445312,0 0.921875,-0.0625 1.421875,-0.1875 0.507813,-0.125 0.90625,-0.273437 1.1875,-0.453125 0.132813,-0.070312 0.222656,-0.109375 0.265625,-0.109375 0.09375,0 0.171875,0.039063 0.234375,0.109375 0.0625,0.0625 0.09375,0.136719 0.09375,0.21875 0,0.167969 -0.183594,0.335938 -0.546875,0.5 C 7.957031,-0.15625 7.523438,-0.0234375 7.015625,0.078125 6.515625,0.191406 6.0625,0.25 5.65625,0.25 5.132812,0.25 4.691406,0.160156 4.328125,-0.015625 c -0.355469,-0.1875 -0.625,-0.425781 -0.8125,-0.71875 C 3.335938,-1.023438 3.25,-1.332031 3.25,-1.65625 v -4.375 H 2.046875 C 1.765625,-6.03125 1.625,-6.140625 1.625,-6.359375 1.625,-6.578125 1.765625,-6.6875 2.046875,-6.6875 H 3.25 v -1.953125 c 0,-0.257813 0.113281,-0.390625 0.34375,-0.390625 z m 0,0"
           id="path51" />
      </g>
    </g>
  </g>
  <g
     fill="#2e2a68"
     fill-opacity="1"
     id="g57"
     transform="translate(-0.25048828,-5.2226563)">
    <g
       transform="translate(210.51205,64.613216)"
       id="g56">
      <g
         id="g55">
        <path
           d="m 4.671875,-6.90625 c 0.6875,0 1.3125,0.15625 1.875,0.46875 0.5625,0.3125 0.988281,0.742188 1.28125,1.28125 0.300781,0.542969 0.453125,1.199219 0.453125,1.96875 H 1.671875 c 0.113281,0.84375 0.460937,1.523438 1.046875,2.03125 0.59375,0.511719 1.328125,0.765625 2.203125,0.765625 0.476563,0 0.972656,-0.078125 1.484375,-0.234375 C 6.925781,-0.789062 7.363281,-1 7.71875,-1.25 7.8125,-1.332031 7.90625,-1.375 8,-1.375 c 0.082031,0 0.148438,0.03125 0.203125,0.09375 0.0625,0.0625 0.09375,0.136719 0.09375,0.21875 0,0.167969 -0.171875,0.355469 -0.515625,0.5625 C 7.445312,-0.289062 7.015625,-0.113281 6.484375,0.03125 5.953125,0.175781 5.429688,0.25 4.921875,0.25 c -0.71875,0 -1.375,-0.1640625 -1.96875,-0.484375 -0.59375,-0.332031 -1.0625,-0.785156 -1.40625,-1.359375 -0.34375,-0.570312 -0.515625,-1.203125 -0.515625,-1.890625 0,-0.625 0.160156,-1.195313 0.484375,-1.71875 0.320313,-0.53125 0.757813,-0.945313 1.3125,-1.25 0.550781,-0.300781 1.164063,-0.453125 1.84375,-0.453125 z m -3,3.0625 H 7.65625 C 7.53125,-4.550781 7.191406,-5.128906 6.640625,-5.578125 6.097656,-6.035156 5.4375,-6.265625 4.65625,-6.265625 c -0.761719,0 -1.414062,0.226563 -1.953125,0.671875 -0.542969,0.4375 -0.886719,1.023438 -1.03125,1.75 z m 0,0"
           id="path54" />
      </g>
    </g>
  </g>
  <g
     fill="#2e2a68"
     fill-opacity="1"
     id="g60"
     transform="translate(-0.25048828,-5.2226563)">
    <g
       transform="translate(219.99412,64.613216)"
       id="g59">
      <g
         id="g58">
        <path
           d="m 7.953125,-0.640625 h 0.90625 c 0.257813,0 0.390625,0.105469 0.390625,0.3125 C 9.25,-0.109375 9.117188,0 8.859375,0 h -1.5625 L 7.3125,-1.25 7.28125,-1.28125 C 6.539062,-0.257812 5.585938,0.25 4.421875,0.25 3.816406,0.25 3.25,0.0859375 2.71875,-0.234375 2.1875,-0.554688 1.765625,-0.992188 1.453125,-1.546875 1.148438,-2.097656 1,-2.695312 1,-3.34375 1,-3.976562 1.148438,-4.570312 1.453125,-5.125 1.765625,-5.675781 2.1875,-6.109375 2.71875,-6.421875 3.25,-6.742188 3.820312,-6.90625 4.4375,-6.90625 c 0.695312,0 1.289062,0.179688 1.78125,0.53125 0.5,0.34375 0.851562,0.679688 1.0625,1 L 7.3125,-5.40625 7.296875,-9.03125 H 6.40625 C 6.132812,-9.03125 6,-9.140625 6,-9.359375 6,-9.578125 6.132812,-9.6875 6.40625,-9.6875 H 7.953125 Z M 1.65625,-3.34375 c 0,0.542969 0.125,1.039062 0.375,1.484375 0.257812,0.449219 0.601562,0.808594 1.03125,1.078125 0.4375,0.261719 0.90625,0.390625 1.40625,0.390625 0.519531,0 0.992188,-0.128906 1.421875,-0.390625 0.425781,-0.269531 0.765625,-0.628906 1.015625,-1.078125 0.257812,-0.445313 0.390625,-0.941406 0.390625,-1.484375 0,-0.519531 -0.125,-1.003906 -0.375,-1.453125 -0.25,-0.445313 -0.59375,-0.800781 -1.03125,-1.0625 -0.429687,-0.269531 -0.90625,-0.40625 -1.4375,-0.40625 -0.511719,0 -0.980469,0.136719 -1.40625,0.40625 -0.429687,0.273437 -0.765625,0.632813 -1.015625,1.078125 -0.25,0.449219 -0.375,0.929688 -0.375,1.4375 z m 0,0"
           id="path57" />
      </g>
    </g>
  </g>
  <g
     fill="#2e2a68"
     fill-opacity="1"
     id="g66"
     transform="translate(-0.25048828,-5.2226563)">
    <g
       transform="translate(238.95825,64.613216)"
       id="g65">
      <g
         id="g64">
        <path
           d="m 3.484375,-6.90625 c 0.644531,0 1.148437,0.355469 1.515625,1.0625 0.257812,-0.320312 0.53125,-0.578125 0.8125,-0.765625 0.289062,-0.195313 0.609375,-0.296875 0.953125,-0.296875 0.3125,0 0.59375,0.085938 0.84375,0.25 0.257813,0.167969 0.457031,0.386719 0.59375,0.65625 0.144531,0.261719 0.21875,0.527344 0.21875,0.796875 v 4.5625 H 9.03125 c 0.25,0 0.375,0.105469 0.375,0.3125 C 9.40625,-0.109375 9.273438,0 9.015625,0 H 7.78125 V -5.15625 C 7.78125,-5.4375 7.6875,-5.691406 7.5,-5.921875 7.3125,-6.148438 7.070312,-6.265625 6.78125,-6.265625 c -0.28125,0 -0.554688,0.105469 -0.8125,0.3125 -0.261719,0.210937 -0.539062,0.542969 -0.828125,1 v 4.3125 H 5.71875 c 0.269531,0 0.40625,0.105469 0.40625,0.3125 C 6.125,-0.109375 5.984375,0 5.703125,0 h -1.21875 v -5.109375 c 0,-0.28125 -0.09375,-0.539063 -0.28125,-0.78125 -0.1875,-0.25 -0.421875,-0.375 -0.703125,-0.375 -0.25,0 -0.511719,0.09375 -0.78125,0.28125 -0.261719,0.1875 -0.5625,0.53125 -0.90625,1.03125 v 4.3125 h 0.609375 c 0.25,0 0.375,0.105469 0.375,0.3125 C 2.796875,-0.109375 2.664062,0 2.40625,0 H 0.59375 C 0.320312,0 0.1875,-0.109375 0.1875,-0.328125 c 0,-0.207031 0.128906,-0.3125 0.390625,-0.3125 h 0.59375 V -6.03125 h -0.59375 c -0.125,0 -0.226563,-0.023438 -0.296875,-0.078125 -0.0625,-0.0625 -0.09375,-0.144531 -0.09375,-0.25 0,-0.21875 0.132812,-0.328125 0.40625,-0.328125 H 1.8125 v 0.65625 c 0.289062,-0.3125 0.566406,-0.535156 0.828125,-0.671875 0.269531,-0.132813 0.550781,-0.203125 0.84375,-0.203125 z m 0,0"
           id="path63" />
      </g>
    </g>
  </g>
  <g
     fill="#2e2a68"
     fill-opacity="1"
     id="g69"
     transform="translate(-0.25048828,-5.2226563)">
    <g
       transform="translate(248.44031,64.613216)"
       id="g68">
      <g
         id="g67">
        <path
           d="m 2.375,-6.453125 c 0.53125,-0.15625 0.96875,-0.269531 1.3125,-0.34375 0.351562,-0.070313 0.691406,-0.109375 1.015625,-0.109375 0.53125,0 0.992187,0.09375 1.390625,0.28125 0.394531,0.179688 0.691406,0.417969 0.890625,0.71875 0.207031,0.292969 0.3125,0.601562 0.3125,0.921875 v 4.34375 H 8.1875 c 0.28125,0 0.421875,0.105469 0.421875,0.3125 C 8.609375,-0.109375 8.46875,0 8.1875,0 H 6.640625 V -0.9375 C 5.703125,-0.144531 4.695312,0.25 3.625,0.25 2.882812,0.25 2.285156,0.0625 1.828125,-0.3125 1.367188,-0.6875 1.140625,-1.175781 1.140625,-1.78125 1.140625,-2.238281 1.28125,-2.644531 1.5625,-3 1.851562,-3.351562 2.253906,-3.628906 2.765625,-3.828125 3.273438,-4.023438 3.863281,-4.125 4.53125,-4.125 c 0.625,0 1.328125,0.078125 2.109375,0.234375 v -1.09375 c 0,-0.320313 -0.171875,-0.613281 -0.515625,-0.875 -0.335938,-0.269531 -0.820312,-0.40625 -1.453125,-0.40625 -0.46875,0 -1.164063,0.148437 -2.078125,0.4375 -0.042969,0.011719 -0.101562,0.03125 -0.171875,0.0625 -0.074219,0.023437 -0.136719,0.03125 -0.1875,0.03125 -0.085937,0 -0.15625,-0.03125 -0.21875,-0.09375 -0.0625,-0.0625 -0.09375,-0.144531 -0.09375,-0.25 0,-0.09375 0.035156,-0.164063 0.109375,-0.21875 0.070312,-0.0625 0.1875,-0.113281 0.34375,-0.15625 z M 1.796875,-1.78125 c 0,0.40625 0.160156,0.742188 0.484375,1 0.320312,0.261719 0.757812,0.390625 1.3125,0.390625 0.570312,0 1.09375,-0.113281 1.5625,-0.34375 0.476562,-0.226563 0.972656,-0.582031 1.484375,-1.0625 V -3.21875 c -0.5625,-0.175781 -1.292969,-0.265625 -2.1875,-0.265625 -0.792969,0.023437 -1.433594,0.1875 -1.921875,0.5 -0.492188,0.3125 -0.734375,0.714844 -0.734375,1.203125 z m 0,0"
           id="path66" />
      </g>
    </g>
  </g>
  <g
     fill="#2e2a68"
     fill-opacity="1"
     id="g72"
     transform="translate(-0.25048828,-5.2226563)">
    <g
       transform="translate(257.92237,64.613216)"
       id="g71">
      <g
         id="g70">
        <path
           d="m 7.953125,-0.640625 h 0.90625 c 0.257813,0 0.390625,0.105469 0.390625,0.3125 C 9.25,-0.109375 9.117188,0 8.859375,0 h -1.5625 L 7.3125,-1.25 7.28125,-1.28125 C 6.539062,-0.257812 5.585938,0.25 4.421875,0.25 3.816406,0.25 3.25,0.0859375 2.71875,-0.234375 2.1875,-0.554688 1.765625,-0.992188 1.453125,-1.546875 1.148438,-2.097656 1,-2.695312 1,-3.34375 1,-3.976562 1.148438,-4.570312 1.453125,-5.125 1.765625,-5.675781 2.1875,-6.109375 2.71875,-6.421875 3.25,-6.742188 3.820312,-6.90625 4.4375,-6.90625 c 0.695312,0 1.289062,0.179688 1.78125,0.53125 0.5,0.34375 0.851562,0.679688 1.0625,1 L 7.3125,-5.40625 7.296875,-9.03125 H 6.40625 C 6.132812,-9.03125 6,-9.140625 6,-9.359375 6,-9.578125 6.132812,-9.6875 6.40625,-9.6875 H 7.953125 Z M 1.65625,-3.34375 c 0,0.542969 0.125,1.039062 0.375,1.484375 0.257812,0.449219 0.601562,0.808594 1.03125,1.078125 0.4375,0.261719 0.90625,0.390625 1.40625,0.390625 0.519531,0 0.992188,-0.128906 1.421875,-0.390625 0.425781,-0.269531 0.765625,-0.628906 1.015625,-1.078125 0.257812,-0.445313 0.390625,-0.941406 0.390625,-1.484375 0,-0.519531 -0.125,-1.003906 -0.375,-1.453125 -0.25,-0.445313 -0.59375,-0.800781 -1.03125,-1.0625 -0.429687,-0.269531 -0.90625,-0.40625 -1.4375,-0.40625 -0.511719,0 -0.980469,0.136719 -1.40625,0.40625 -0.429687,0.273437 -0.765625,0.632813 -1.015625,1.078125 -0.25,0.449219 -0.375,0.929688 -0.375,1.4375 z m 0,0"
           id="path69" />
      </g>
    </g>
  </g>
  <g
     fill="#2e2a68"
     fill-opacity="1"
     id="g75"
     transform="translate(-0.25048828,-5.2226563)">
    <g
       transform="translate(267.40444,64.613216)"
       id="g74">
      <g
         id="g73">
        <path
           d="m 4.671875,-6.90625 c 0.6875,0 1.3125,0.15625 1.875,0.46875 0.5625,0.3125 0.988281,0.742188 1.28125,1.28125 0.300781,0.542969 0.453125,1.199219 0.453125,1.96875 H 1.671875 c 0.113281,0.84375 0.460937,1.523438 1.046875,2.03125 0.59375,0.511719 1.328125,0.765625 2.203125,0.765625 0.476563,0 0.972656,-0.078125 1.484375,-0.234375 C 6.925781,-0.789062 7.363281,-1 7.71875,-1.25 7.8125,-1.332031 7.90625,-1.375 8,-1.375 c 0.082031,0 0.148438,0.03125 0.203125,0.09375 0.0625,0.0625 0.09375,0.136719 0.09375,0.21875 0,0.167969 -0.171875,0.355469 -0.515625,0.5625 C 7.445312,-0.289062 7.015625,-0.113281 6.484375,0.03125 5.953125,0.175781 5.429688,0.25 4.921875,0.25 c -0.71875,0 -1.375,-0.1640625 -1.96875,-0.484375 -0.59375,-0.332031 -1.0625,-0.785156 -1.40625,-1.359375 -0.34375,-0.570312 -0.515625,-1.203125 -0.515625,-1.890625 0,-0.625 0.160156,-1.195313 0.484375,-1.71875 0.320313,-0.53125 0.757813,-0.945313 1.3125,-1.25 0.550781,-0.300781 1.164063,-0.453125 1.84375,-0.453125 z m -3,3.0625 H 7.65625 C 7.53125,-4.550781 7.191406,-5.128906 6.640625,-5.578125 6.097656,-6.035156 5.4375,-6.265625 4.65625,-6.265625 c -0.761719,0 -1.414062,0.226563 -1.953125,0.671875 -0.542969,0.4375 -0.886719,1.023438 -1.03125,1.75 z m 0,0"
           id="path72" />
      </g>
    </g>
  </g>
  <g
     fill="#2e2a68"
     fill-opacity="1"
     id="g81"
     transform="translate(-0.25048828,-5.2226563)">
    <g
       transform="translate(286.36857,64.613216)"
       id="g80">
      <g
         id="g79">
        <path
           d="m 4.671875,-6.90625 c 0.6875,0 1.3125,0.15625 1.875,0.46875 0.5625,0.3125 0.988281,0.742188 1.28125,1.28125 0.300781,0.542969 0.453125,1.199219 0.453125,1.96875 H 1.671875 c 0.113281,0.84375 0.460937,1.523438 1.046875,2.03125 0.59375,0.511719 1.328125,0.765625 2.203125,0.765625 0.476563,0 0.972656,-0.078125 1.484375,-0.234375 C 6.925781,-0.789062 7.363281,-1 7.71875,-1.25 7.8125,-1.332031 7.90625,-1.375 8,-1.375 c 0.082031,0 0.148438,0.03125 0.203125,0.09375 0.0625,0.0625 0.09375,0.136719 0.09375,0.21875 0,0.167969 -0.171875,0.355469 -0.515625,0.5625 C 7.445312,-0.289062 7.015625,-0.113281 6.484375,0.03125 5.953125,0.175781 5.429688,0.25 4.921875,0.25 c -0.71875,0 -1.375,-0.1640625 -1.96875,-0.484375 -0.59375,-0.332031 -1.0625,-0.785156 -1.40625,-1.359375 -0.34375,-0.570312 -0.515625,-1.203125 -0.515625,-1.890625 0,-0.625 0.160156,-1.195313 0.484375,-1.71875 0.320313,-0.53125 0.757813,-0.945313 1.3125,-1.25 0.550781,-0.300781 1.164063,-0.453125 1.84375,-0.453125 z m -3,3.0625 H 7.65625 C 7.53125,-4.550781 7.191406,-5.128906 6.640625,-5.578125 6.097656,-6.035156 5.4375,-6.265625 4.65625,-6.265625 c -0.761719,0 -1.414062,0.226563 -1.953125,0.671875 -0.542969,0.4375 -0.886719,1.023438 -1.03125,1.75 z m 0,0"
           id="path78" />
      </g>
    </g>
  </g>
  <g
     fill="#2e2a68"
     fill-opacity="1"
     id="g84"
     transform="translate(-0.25048828,-5.2226563)">
    <g
       transform="translate(295.85063,64.613216)"
       id="g83">
      <g
         id="g82">
        <path
           d="m 2.375,-6.453125 c 0.53125,-0.15625 0.96875,-0.269531 1.3125,-0.34375 0.351562,-0.070313 0.691406,-0.109375 1.015625,-0.109375 0.53125,0 0.992187,0.09375 1.390625,0.28125 0.394531,0.179688 0.691406,0.417969 0.890625,0.71875 0.207031,0.292969 0.3125,0.601562 0.3125,0.921875 v 4.34375 H 8.1875 c 0.28125,0 0.421875,0.105469 0.421875,0.3125 C 8.609375,-0.109375 8.46875,0 8.1875,0 H 6.640625 V -0.9375 C 5.703125,-0.144531 4.695312,0.25 3.625,0.25 2.882812,0.25 2.285156,0.0625 1.828125,-0.3125 1.367188,-0.6875 1.140625,-1.175781 1.140625,-1.78125 1.140625,-2.238281 1.28125,-2.644531 1.5625,-3 1.851562,-3.351562 2.253906,-3.628906 2.765625,-3.828125 3.273438,-4.023438 3.863281,-4.125 4.53125,-4.125 c 0.625,0 1.328125,0.078125 2.109375,0.234375 v -1.09375 c 0,-0.320313 -0.171875,-0.613281 -0.515625,-0.875 -0.335938,-0.269531 -0.820312,-0.40625 -1.453125,-0.40625 -0.46875,0 -1.164063,0.148437 -2.078125,0.4375 -0.042969,0.011719 -0.101562,0.03125 -0.171875,0.0625 -0.074219,0.023437 -0.136719,0.03125 -0.1875,0.03125 -0.085937,0 -0.15625,-0.03125 -0.21875,-0.09375 -0.0625,-0.0625 -0.09375,-0.144531 -0.09375,-0.25 0,-0.09375 0.035156,-0.164063 0.109375,-0.21875 0.070312,-0.0625 0.1875,-0.113281 0.34375,-0.15625 z M 1.796875,-1.78125 c 0,0.40625 0.160156,0.742188 0.484375,1 0.320312,0.261719 0.757812,0.390625 1.3125,0.390625 0.570312,0 1.09375,-0.113281 1.5625,-0.34375 0.476562,-0.226563 0.972656,-0.582031 1.484375,-1.0625 V -3.21875 c -0.5625,-0.175781 -1.292969,-0.265625 -2.1875,-0.265625 -0.792969,0.023437 -1.433594,0.1875 -1.921875,0.5 -0.492188,0.3125 -0.734375,0.714844 -0.734375,1.203125 z m 0,0"
           id="path81" />
      </g>
    </g>
  </g>
  <g
     fill="#2e2a68"
     fill-opacity="1"
     id="g87"
     transform="translate(-0.25048828,-5.2226563)">
    <g
       transform="translate(305.3327,64.613216)"
       id="g86">
      <g
         id="g85">
        <path
           d="m 4.734375,-6.90625 c 0.90625,0 1.632813,0.214844 2.1875,0.640625 0,-0.28125 0.113281,-0.421875 0.34375,-0.421875 0.101563,0 0.179687,0.042969 0.234375,0.125 0.050781,0.074219 0.078125,0.167969 0.078125,0.28125 v 1.171875 c 0,0.125 -0.027344,0.226563 -0.078125,0.296875 -0.054688,0.074219 -0.132812,0.109375 -0.234375,0.109375 -0.210937,0 -0.324219,-0.113281 -0.34375,-0.34375 -0.03125,-0.363281 -0.246094,-0.65625 -0.640625,-0.875 -0.398438,-0.226563 -0.902344,-0.34375 -1.515625,-0.34375 -0.617187,0 -1.125,0.117187 -1.53125,0.34375 -0.40625,0.230469 -0.609375,0.511719 -0.609375,0.84375 0,0.273437 0.140625,0.507813 0.421875,0.703125 0.289063,0.1875 0.640625,0.304688 1.046875,0.34375 L 5,-3.9375 c 1.164062,0.15625 1.941406,0.421875 2.328125,0.796875 0.394531,0.375 0.59375,0.804687 0.59375,1.28125 0,0.40625 -0.136719,0.773437 -0.40625,1.09375 -0.261719,0.324219 -0.632813,0.574219 -1.109375,0.75 C 5.9375,0.160156 5.398438,0.25 4.796875,0.25 c -1.011719,0 -1.84375,-0.25390625 -2.5,-0.765625 v 0.09375 C 2.296875,-0.140625 2.179688,0 1.953125,0 1.734375,0 1.625,-0.132812 1.625,-0.40625 v -1.390625 c 0,-0.269531 0.109375,-0.40625 0.328125,-0.40625 0.226563,0 0.34375,0.152344 0.34375,0.453125 0,0.375 0.238281,0.699219 0.71875,0.96875 0.488281,0.261719 1.078125,0.390625 1.765625,0.390625 0.707031,0 1.300781,-0.140625 1.78125,-0.421875 0.476562,-0.28125 0.71875,-0.628906 0.71875,-1.046875 0,-0.34375 -0.199219,-0.65625 -0.59375,-0.9375 C 6.300781,-3.078125 5.664062,-3.253906 4.78125,-3.328125 3.894531,-3.410156 3.289062,-3.53125 2.96875,-3.6875 2.664062,-3.820312 2.421875,-4.015625 2.234375,-4.265625 c -0.1875,-0.257813 -0.28125,-0.539063 -0.28125,-0.84375 0,-0.34375 0.117187,-0.648437 0.359375,-0.921875 0.238281,-0.28125 0.566406,-0.492188 0.984375,-0.640625 0.425781,-0.15625 0.90625,-0.234375 1.4375,-0.234375 z m 0,0"
           id="path84" />
      </g>
    </g>
  </g>
  <g
     fill="#2e2a68"
     fill-opacity="1"
     id="g90"
     transform="translate(-0.25048828,-5.2226563)">
    <g
       transform="translate(314.81476,64.613216)"
       id="g89">
      <g
         id="g88">
        <path
           d="m 3.828125,-6.359375 c 0,0.21875 -0.136719,0.328125 -0.40625,0.328125 h -0.90625 l 2.640625,5.3125 2.625,-5.3125 H 6.875 c -0.273438,0 -0.40625,-0.109375 -0.40625,-0.328125 0,-0.21875 0.132812,-0.328125 0.40625,-0.328125 h 1.828125 c 0.269531,0 0.40625,0.109375 0.40625,0.328125 0,0.148437 -0.046875,0.242187 -0.140625,0.28125 C 8.875,-6.046875 8.753906,-6.03125 8.609375,-6.03125 H 8.46875 L 4.359375,2.328125 H 5.40625 c 0.269531,0 0.40625,0.109375 0.40625,0.328125 0,0.21875 -0.136719,0.328125 -0.40625,0.328125 H 1.609375 c -0.273437,0 -0.40625,-0.109375 -0.40625,-0.328125 0,-0.21875 0.132813,-0.328125 0.40625,-0.328125 H 3.6875 L 4.828125,0 1.796875,-6.03125 H 1.65625 c -0.125,0 -0.234375,-0.015625 -0.328125,-0.046875 C 1.234375,-6.117188 1.1875,-6.210938 1.1875,-6.359375 c 0,-0.101563 0.035156,-0.179687 0.109375,-0.234375 0.070313,-0.0625 0.144531,-0.09375 0.21875,-0.09375 h 1.90625 c 0.269531,0 0.40625,0.109375 0.40625,0.328125 z m 0,0"
           id="path87" />
      </g>
    </g>
  </g>
</svg>
